<?xml version="1.0" encoding="UTF-8" standalone="no"?>
<!DOCTYPE svg PUBLIC "-//W3C//DTD SVG 1.1//EN" "http://www.w3.org/Graphics/SVG/1.1/DTD/svg11.dtd">
<svg width="100%" height="100%" viewBox="0 0 185 100" version="1.1" xmlns="http://www.w3.org/2000/svg" xmlns:xlink="http://www.w3.org/1999/xlink" xml:space="preserve" xmlns:serif="http://www.serif.com/" style="fill-rule:evenodd;clip-rule:evenodd;stroke-linejoin:round;stroke-miterlimit:2;">
    <g transform="matrix(2.61787,0,0,2.61787,-240.401,-243.846)">
        <g transform="matrix(12.36,0,0,12,126.388,115.112)">
            <path d="M0.135,0.007C0.125,0.007 0.117,0.002 0.112,-0.008C0.106,-0.017 0.103,-0.029 0.103,-0.043C0.103,-0.065 0.104,-0.092 0.107,-0.124L0.109,-0.15L0.111,-0.203C0.111,-0.226 0.109,-0.278 0.104,-0.359C0.099,-0.44 0.097,-0.492 0.097,-0.515C0.097,-0.517 0.097,-0.521 0.098,-0.527C0.098,-0.532 0.098,-0.541 0.098,-0.553C0.099,-0.566 0.099,-0.583 0.099,-0.602C0.099,-0.651 0.096,-0.682 0.089,-0.695C0.085,-0.695 0.076,-0.694 0.063,-0.692L0.035,-0.69C0.026,-0.69 0.019,-0.693 0.012,-0.698C0.005,-0.703 0.002,-0.709 0.002,-0.717C0.002,-0.725 0.01,-0.732 0.026,-0.738C0.049,-0.746 0.089,-0.752 0.145,-0.755C0.168,-0.756 0.181,-0.757 0.186,-0.757C0.194,-0.757 0.201,-0.754 0.208,-0.749C0.215,-0.744 0.218,-0.737 0.218,-0.729C0.218,-0.721 0.215,-0.715 0.21,-0.71C0.204,-0.705 0.197,-0.702 0.188,-0.702L0.17,-0.703C0.165,-0.704 0.159,-0.704 0.152,-0.704L0.142,-0.704C0.147,-0.659 0.149,-0.618 0.149,-0.581L0.148,-0.517C0.147,-0.498 0.147,-0.476 0.147,-0.452C0.147,-0.42 0.148,-0.382 0.151,-0.337C0.154,-0.282 0.156,-0.243 0.156,-0.222C0.156,-0.197 0.157,-0.167 0.16,-0.132C0.163,-0.097 0.164,-0.067 0.164,-0.042C0.164,-0.009 0.154,0.007 0.135,0.007Z" style="fill:rgb(255,0,82);fill-rule:nonzero;"/>
        </g>
        <g transform="matrix(12.36,0,0,12,129.936,115.112)">
            <path d="M0.093,0.006C0.084,0.006 0.077,0.003 0.072,-0.003C0.067,-0.008 0.065,-0.015 0.066,-0.024L0.103,-0.156C0.104,-0.159 0.104,-0.162 0.104,-0.167C0.104,-0.172 0.104,-0.175 0.103,-0.177L0.097,-0.203C0.095,-0.212 0.092,-0.226 0.088,-0.246C0.083,-0.265 0.08,-0.283 0.077,-0.298C0.072,-0.319 0.065,-0.362 0.055,-0.429C0.045,-0.495 0.036,-0.554 0.029,-0.607L0.024,-0.638C0.017,-0.679 0.013,-0.708 0.013,-0.724C0.013,-0.737 0.015,-0.746 0.018,-0.75C0.021,-0.753 0.026,-0.755 0.033,-0.755C0.038,-0.755 0.044,-0.754 0.05,-0.753C0.055,-0.751 0.06,-0.749 0.063,-0.746C0.067,-0.742 0.069,-0.735 0.069,-0.726L0.068,-0.706C0.068,-0.703 0.072,-0.678 0.08,-0.633L0.09,-0.568C0.089,-0.549 0.09,-0.529 0.093,-0.509C0.095,-0.489 0.099,-0.465 0.104,-0.437C0.105,-0.432 0.107,-0.425 0.108,-0.417C0.112,-0.394 0.116,-0.36 0.12,-0.316C0.121,-0.308 0.122,-0.299 0.123,-0.288C0.124,-0.277 0.125,-0.269 0.126,-0.264C0.133,-0.298 0.138,-0.339 0.143,-0.387C0.143,-0.392 0.144,-0.4 0.145,-0.409C0.149,-0.448 0.154,-0.505 0.159,-0.579C0.16,-0.59 0.162,-0.611 0.163,-0.64L0.165,-0.676C0.166,-0.685 0.167,-0.694 0.167,-0.703C0.167,-0.705 0.167,-0.71 0.168,-0.718C0.168,-0.725 0.169,-0.732 0.17,-0.737C0.171,-0.742 0.173,-0.747 0.176,-0.75C0.18,-0.756 0.187,-0.759 0.197,-0.759C0.209,-0.759 0.219,-0.756 0.227,-0.749C0.232,-0.745 0.234,-0.738 0.234,-0.729C0.234,-0.723 0.234,-0.717 0.233,-0.713C0.232,-0.708 0.232,-0.703 0.231,-0.699C0.227,-0.664 0.223,-0.623 0.218,-0.574L0.206,-0.463C0.204,-0.448 0.201,-0.423 0.197,-0.39C0.187,-0.298 0.178,-0.231 0.17,-0.19C0.167,-0.173 0.161,-0.142 0.15,-0.098C0.139,-0.054 0.133,-0.029 0.13,-0.022C0.128,-0.014 0.124,-0.007 0.117,-0.002C0.11,0.003 0.102,0.006 0.093,0.006Z" style="fill:rgb(255,0,82);fill-rule:nonzero;"/>
        </g>
        <g transform="matrix(12.36,0,0,12,133.508,115.112)">
            <path d="M0.135,0.007C0.125,0.007 0.117,0.002 0.112,-0.008C0.106,-0.017 0.103,-0.029 0.103,-0.043C0.103,-0.065 0.104,-0.092 0.107,-0.124L0.109,-0.15L0.111,-0.203C0.111,-0.226 0.109,-0.278 0.104,-0.359C0.099,-0.44 0.097,-0.492 0.097,-0.515C0.097,-0.517 0.097,-0.521 0.098,-0.527C0.098,-0.532 0.098,-0.541 0.098,-0.553C0.099,-0.566 0.099,-0.583 0.099,-0.602C0.099,-0.651 0.096,-0.682 0.089,-0.695C0.085,-0.695 0.076,-0.694 0.063,-0.692L0.035,-0.69C0.026,-0.69 0.019,-0.693 0.012,-0.698C0.005,-0.703 0.002,-0.709 0.002,-0.717C0.002,-0.725 0.01,-0.732 0.026,-0.738C0.049,-0.746 0.089,-0.752 0.145,-0.755C0.168,-0.756 0.181,-0.757 0.186,-0.757C0.194,-0.757 0.201,-0.754 0.208,-0.749C0.215,-0.744 0.218,-0.737 0.218,-0.729C0.218,-0.721 0.215,-0.715 0.21,-0.71C0.204,-0.705 0.197,-0.702 0.188,-0.702L0.17,-0.703C0.165,-0.704 0.159,-0.704 0.152,-0.704L0.142,-0.704C0.147,-0.659 0.149,-0.618 0.149,-0.581L0.148,-0.517C0.147,-0.498 0.147,-0.476 0.147,-0.452C0.147,-0.42 0.148,-0.382 0.151,-0.337C0.154,-0.282 0.156,-0.243 0.156,-0.222C0.156,-0.197 0.157,-0.167 0.16,-0.132C0.163,-0.097 0.164,-0.067 0.164,-0.042C0.164,-0.009 0.154,0.007 0.135,0.007Z" style="fill:rgb(255,0,82);fill-rule:nonzero;"/>
        </g>
        <g transform="matrix(12.36,0,0,12,139.626,115.112)">
            <path d="M0.114,0C0.093,0 0.077,-0.002 0.066,-0.005C0.059,-0.007 0.055,-0.011 0.053,-0.016C0.05,-0.021 0.049,-0.029 0.049,-0.038C0.048,-0.052 0.048,-0.072 0.048,-0.097C0.048,-0.117 0.049,-0.144 0.05,-0.179L0.051,-0.259C0.052,-0.274 0.052,-0.295 0.052,-0.324C0.052,-0.345 0.052,-0.361 0.051,-0.372L0.049,-0.496C0.049,-0.56 0.048,-0.608 0.047,-0.64C0.046,-0.658 0.046,-0.685 0.046,-0.72C0.046,-0.733 0.048,-0.741 0.053,-0.745C0.057,-0.749 0.066,-0.751 0.079,-0.752L0.114,-0.753C0.142,-0.755 0.169,-0.756 0.196,-0.756C0.206,-0.756 0.215,-0.753 0.224,-0.746C0.229,-0.742 0.231,-0.737 0.231,-0.73C0.231,-0.723 0.227,-0.717 0.22,-0.713C0.208,-0.707 0.196,-0.704 0.185,-0.704C0.142,-0.704 0.116,-0.703 0.109,-0.7C0.101,-0.697 0.097,-0.691 0.097,-0.681L0.097,-0.656L0.098,-0.614C0.099,-0.577 0.1,-0.549 0.1,-0.53C0.1,-0.507 0.1,-0.489 0.099,-0.477C0.098,-0.473 0.098,-0.469 0.099,-0.466C0.099,-0.463 0.099,-0.46 0.099,-0.457C0.1,-0.452 0.1,-0.444 0.1,-0.431C0.135,-0.433 0.163,-0.426 0.184,-0.409C0.204,-0.392 0.221,-0.365 0.236,-0.326C0.251,-0.287 0.258,-0.247 0.258,-0.205C0.258,-0.192 0.258,-0.183 0.257,-0.177C0.252,-0.138 0.24,-0.103 0.221,-0.073C0.206,-0.051 0.189,-0.035 0.171,-0.024C0.168,-0.022 0.162,-0.019 0.155,-0.015C0.148,-0.01 0.141,-0.007 0.134,-0.004C0.127,-0.001 0.121,0 0.114,0ZM0.108,-0.059C0.13,-0.062 0.149,-0.072 0.165,-0.087C0.18,-0.102 0.19,-0.122 0.195,-0.146C0.201,-0.167 0.204,-0.191 0.204,-0.218C0.204,-0.248 0.2,-0.278 0.193,-0.307C0.19,-0.318 0.186,-0.328 0.18,-0.338C0.174,-0.348 0.168,-0.357 0.162,-0.366C0.155,-0.375 0.151,-0.381 0.148,-0.385C0.141,-0.388 0.133,-0.389 0.126,-0.389L0.101,-0.388C0.102,-0.347 0.104,-0.284 0.105,-0.2L0.108,-0.059Z" style="fill:rgb(255,0,82);fill-rule:nonzero;"/>
        </g>
        <g transform="matrix(12.36,0,0,12,143.421,115.112)">
            <path d="M0.093,0.006C0.084,0.006 0.077,0.003 0.072,-0.003C0.067,-0.008 0.065,-0.015 0.066,-0.024L0.103,-0.156C0.104,-0.159 0.104,-0.162 0.104,-0.167C0.104,-0.172 0.104,-0.175 0.103,-0.177L0.097,-0.203C0.095,-0.212 0.092,-0.226 0.088,-0.246C0.083,-0.265 0.08,-0.283 0.077,-0.298C0.072,-0.319 0.065,-0.362 0.055,-0.429C0.045,-0.495 0.036,-0.554 0.029,-0.607L0.024,-0.638C0.017,-0.679 0.013,-0.708 0.013,-0.724C0.013,-0.737 0.015,-0.746 0.018,-0.75C0.021,-0.753 0.026,-0.755 0.033,-0.755C0.038,-0.755 0.044,-0.754 0.05,-0.753C0.055,-0.751 0.06,-0.749 0.063,-0.746C0.067,-0.742 0.069,-0.735 0.069,-0.726L0.068,-0.706C0.068,-0.703 0.072,-0.678 0.08,-0.633L0.09,-0.568C0.089,-0.549 0.09,-0.529 0.093,-0.509C0.095,-0.489 0.099,-0.465 0.104,-0.437C0.105,-0.432 0.107,-0.425 0.108,-0.417C0.112,-0.394 0.116,-0.36 0.12,-0.316C0.121,-0.308 0.122,-0.299 0.123,-0.288C0.124,-0.277 0.125,-0.269 0.126,-0.264C0.133,-0.298 0.138,-0.339 0.143,-0.387C0.143,-0.392 0.144,-0.4 0.145,-0.409C0.149,-0.448 0.154,-0.505 0.159,-0.579C0.16,-0.59 0.162,-0.611 0.163,-0.64L0.165,-0.676C0.166,-0.685 0.167,-0.694 0.167,-0.703C0.167,-0.705 0.167,-0.71 0.168,-0.718C0.168,-0.725 0.169,-0.732 0.17,-0.737C0.171,-0.742 0.173,-0.747 0.176,-0.75C0.18,-0.756 0.187,-0.759 0.197,-0.759C0.209,-0.759 0.219,-0.756 0.227,-0.749C0.232,-0.745 0.234,-0.738 0.234,-0.729C0.234,-0.723 0.234,-0.717 0.233,-0.713C0.232,-0.708 0.232,-0.703 0.231,-0.699C0.227,-0.664 0.223,-0.623 0.218,-0.574L0.206,-0.463C0.204,-0.448 0.201,-0.423 0.197,-0.39C0.187,-0.298 0.178,-0.231 0.17,-0.19C0.167,-0.173 0.161,-0.142 0.15,-0.098C0.139,-0.054 0.133,-0.029 0.13,-0.022C0.128,-0.014 0.124,-0.007 0.117,-0.002C0.11,0.003 0.102,0.006 0.093,0.006Z" style="fill:rgb(255,0,82);fill-rule:nonzero;"/>
        </g>
        <g transform="matrix(12.36,0,0,12,146.993,115.112)">
            <path d="M0.356,0.104C0.35,0.104 0.344,0.101 0.339,0.095C0.333,0.088 0.33,0.081 0.33,0.073C0.33,0.062 0.332,0.03 0.336,-0.022C0.321,-0.026 0.307,-0.028 0.292,-0.028C0.278,-0.028 0.258,-0.026 0.233,-0.023L0.209,-0.02C0.16,-0.015 0.122,-0.011 0.094,-0.009C0.091,-0.009 0.074,-0.008 0.041,-0.006C0.041,0.001 0.041,0.01 0.042,0.023C0.042,0.036 0.042,0.046 0.041,0.054C0.04,0.063 0.038,0.07 0.034,0.075C0.029,0.08 0.024,0.083 0.018,0.083C0.015,0.083 0.01,0.082 0.005,0.079C0,0.074 -0.006,0.065 -0.012,0.052C-0.013,0.048 -0.014,0.034 -0.014,0.009L-0.015,-0.018C-0.016,-0.023 -0.013,-0.029 -0.007,-0.036C-0.001,-0.042 0.007,-0.045 0.018,-0.046C0.048,-0.048 0.067,-0.065 0.076,-0.097C0.081,-0.112 0.085,-0.131 0.089,-0.153C0.093,-0.174 0.096,-0.193 0.097,-0.21C0.106,-0.298 0.111,-0.365 0.111,-0.412C0.111,-0.428 0.11,-0.451 0.109,-0.482C0.108,-0.503 0.107,-0.519 0.107,-0.529C0.107,-0.557 0.107,-0.578 0.106,-0.592C0.106,-0.649 0.105,-0.685 0.104,-0.7C0.103,-0.713 0.105,-0.724 0.111,-0.734C0.117,-0.743 0.126,-0.748 0.139,-0.749C0.171,-0.752 0.19,-0.754 0.197,-0.754C0.211,-0.754 0.223,-0.752 0.234,-0.749C0.239,-0.748 0.243,-0.747 0.247,-0.747C0.25,-0.747 0.253,-0.747 0.255,-0.746C0.268,-0.745 0.277,-0.742 0.282,-0.738C0.286,-0.734 0.289,-0.724 0.289,-0.709L0.288,-0.64C0.288,-0.625 0.288,-0.613 0.289,-0.606C0.291,-0.533 0.295,-0.421 0.3,-0.27L0.301,-0.243C0.302,-0.209 0.304,-0.175 0.306,-0.14C0.308,-0.105 0.311,-0.08 0.314,-0.066C0.339,-0.066 0.358,-0.064 0.371,-0.061C0.384,-0.058 0.39,-0.049 0.39,-0.036C0.39,-0.033 0.39,-0.03 0.389,-0.028C0.387,-0.015 0.385,0 0.383,0.016C0.381,0.032 0.38,0.046 0.379,0.057C0.378,0.06 0.378,0.067 0.378,0.076C0.378,0.085 0.377,0.092 0.374,0.097C0.371,0.102 0.365,0.104 0.356,0.104ZM0.116,-0.054C0.145,-0.057 0.169,-0.058 0.188,-0.059L0.259,-0.064C0.26,-0.079 0.261,-0.089 0.261,-0.096C0.261,-0.105 0.26,-0.121 0.259,-0.144C0.259,-0.149 0.259,-0.156 0.258,-0.167C0.257,-0.178 0.256,-0.187 0.256,-0.196L0.249,-0.355L0.249,-0.454L0.237,-0.684C0.237,-0.695 0.236,-0.703 0.234,-0.709C0.227,-0.712 0.215,-0.714 0.198,-0.714C0.183,-0.714 0.169,-0.713 0.156,-0.711L0.156,-0.478C0.154,-0.387 0.151,-0.307 0.146,-0.237C0.144,-0.204 0.14,-0.17 0.134,-0.135C0.127,-0.1 0.121,-0.073 0.116,-0.054Z" style="fill:rgb(255,0,82);fill-rule:nonzero;"/>
        </g>
        <g transform="matrix(12.36,0,0,12,152.035,115.112)">
            <path d="M0.117,0.006C0.104,0.006 0.093,0.004 0.084,0.001C0.073,-0.002 0.067,-0.012 0.067,-0.027L0.067,-0.608C0.067,-0.619 0.065,-0.636 0.061,-0.659C0.056,-0.68 0.054,-0.697 0.054,-0.71L0.054,-0.713C0.065,-0.732 0.074,-0.744 0.079,-0.749C0.088,-0.749 0.101,-0.75 0.116,-0.753C0.13,-0.756 0.142,-0.757 0.153,-0.757C0.164,-0.757 0.174,-0.754 0.184,-0.748C0.194,-0.741 0.199,-0.734 0.199,-0.725C0.199,-0.705 0.184,-0.695 0.153,-0.695L0.139,-0.695C0.135,-0.696 0.13,-0.696 0.125,-0.696C0.119,-0.696 0.115,-0.696 0.114,-0.695C0.114,-0.672 0.115,-0.645 0.118,-0.613L0.12,-0.585L0.122,-0.53C0.122,-0.517 0.121,-0.498 0.119,-0.472L0.117,-0.416L0.131,-0.419C0.144,-0.423 0.155,-0.425 0.164,-0.425C0.171,-0.425 0.178,-0.422 0.184,-0.417C0.19,-0.411 0.193,-0.404 0.193,-0.397C0.193,-0.389 0.191,-0.382 0.186,-0.376C0.181,-0.369 0.174,-0.366 0.167,-0.366L0.155,-0.367L0.142,-0.367C0.132,-0.367 0.125,-0.365 0.121,-0.36L0.121,-0.051L0.177,-0.054C0.215,-0.054 0.234,-0.045 0.234,-0.028L0.234,-0.024C0.23,-0.016 0.223,-0.01 0.212,-0.005C0.201,0 0.191,0.004 0.181,0.005L0.148,0.006L0.117,0.006Z" style="fill:rgb(255,0,82);fill-rule:nonzero;"/>
        </g>
        <g transform="matrix(12.36,0,0,12,155.781,115.112)">
            <path d="M0.135,0.007C0.125,0.007 0.117,0.002 0.112,-0.008C0.106,-0.017 0.103,-0.029 0.103,-0.043C0.103,-0.065 0.104,-0.092 0.107,-0.124L0.109,-0.15L0.111,-0.203C0.111,-0.226 0.109,-0.278 0.104,-0.359C0.099,-0.44 0.097,-0.492 0.097,-0.515C0.097,-0.517 0.097,-0.521 0.098,-0.527C0.098,-0.532 0.098,-0.541 0.098,-0.553C0.099,-0.566 0.099,-0.583 0.099,-0.602C0.099,-0.651 0.096,-0.682 0.089,-0.695C0.085,-0.695 0.076,-0.694 0.063,-0.692L0.035,-0.69C0.026,-0.69 0.019,-0.693 0.012,-0.698C0.005,-0.703 0.002,-0.709 0.002,-0.717C0.002,-0.725 0.01,-0.732 0.026,-0.738C0.049,-0.746 0.089,-0.752 0.145,-0.755C0.168,-0.756 0.181,-0.757 0.186,-0.757C0.194,-0.757 0.201,-0.754 0.208,-0.749C0.215,-0.744 0.218,-0.737 0.218,-0.729C0.218,-0.721 0.215,-0.715 0.21,-0.71C0.204,-0.705 0.197,-0.702 0.188,-0.702L0.17,-0.703C0.165,-0.704 0.159,-0.704 0.152,-0.704L0.142,-0.704C0.147,-0.659 0.149,-0.618 0.149,-0.581L0.148,-0.517C0.147,-0.498 0.147,-0.476 0.147,-0.452C0.147,-0.42 0.148,-0.382 0.151,-0.337C0.154,-0.282 0.156,-0.243 0.156,-0.222C0.156,-0.197 0.157,-0.167 0.16,-0.132C0.163,-0.097 0.164,-0.067 0.164,-0.042C0.164,-0.009 0.154,0.007 0.135,0.007Z" style="fill:rgb(255,0,82);fill-rule:nonzero;"/>
        </g>
        <g transform="matrix(12,0,0,12,126.388,126.209)">
            <path d="M0.235,0.015C0.226,0.015 0.22,0.012 0.216,0.006C0.211,-0.001 0.209,-0.009 0.209,-0.018C0.209,-0.157 0.206,-0.275 0.201,-0.371C0.185,-0.374 0.174,-0.375 0.167,-0.375C0.14,-0.375 0.12,-0.373 0.108,-0.368C0.108,-0.331 0.111,-0.274 0.117,-0.199C0.122,-0.119 0.125,-0.062 0.125,-0.029C0.125,-0.022 0.123,-0.016 0.119,-0.011C0.115,-0.005 0.11,-0.002 0.104,-0.002C0.095,-0.002 0.087,-0.017 0.08,-0.048C0.069,-0.093 0.061,-0.188 0.054,-0.333C0.049,-0.431 0.047,-0.536 0.047,-0.649C0.046,-0.67 0.046,-0.699 0.046,-0.737C0.046,-0.749 0.052,-0.755 0.063,-0.755C0.07,-0.755 0.077,-0.753 0.084,-0.75C0.091,-0.747 0.096,-0.743 0.099,-0.739C0.096,-0.718 0.095,-0.693 0.095,-0.664C0.095,-0.636 0.096,-0.602 0.099,-0.562C0.101,-0.516 0.102,-0.481 0.102,-0.458L0.102,-0.44C0.101,-0.435 0.101,-0.428 0.101,-0.421C0.101,-0.414 0.102,-0.406 0.103,-0.395C0.107,-0.395 0.114,-0.395 0.123,-0.396C0.132,-0.397 0.142,-0.398 0.151,-0.399C0.173,-0.401 0.189,-0.402 0.2,-0.402C0.2,-0.46 0.199,-0.514 0.198,-0.563L0.196,-0.73L0.196,-0.757C0.205,-0.757 0.212,-0.756 0.219,-0.753C0.226,-0.749 0.231,-0.746 0.234,-0.741C0.24,-0.734 0.244,-0.721 0.245,-0.703L0.245,-0.68C0.245,-0.623 0.248,-0.513 0.255,-0.351C0.261,-0.204 0.264,-0.094 0.264,-0.021C0.264,-0.012 0.261,-0.003 0.256,0.004C0.25,0.011 0.243,0.015 0.235,0.015Z" style="fill:rgb(255,0,82);fill-rule:nonzero;"/>
        </g>
        <g transform="matrix(12,0,0,12,130.348,126.209)">
            <path d="M0.258,0C0.247,0 0.24,-0.002 0.235,-0.006C0.23,-0.01 0.227,-0.017 0.227,-0.026L0.227,-0.157C0.218,-0.163 0.202,-0.168 0.178,-0.173C0.154,-0.178 0.131,-0.181 0.11,-0.182C0.103,-0.168 0.097,-0.151 0.094,-0.131L0.09,-0.111C0.089,-0.106 0.087,-0.096 0.084,-0.08C0.081,-0.064 0.077,-0.05 0.073,-0.039C0.069,-0.027 0.065,-0.018 0.061,-0.011C0.036,-0.011 0.021,-0.018 0.017,-0.031C0.024,-0.042 0.033,-0.073 0.042,-0.125L0.075,-0.308C0.09,-0.395 0.103,-0.469 0.116,-0.53C0.128,-0.591 0.141,-0.643 0.155,-0.684C0.17,-0.73 0.185,-0.753 0.199,-0.753C0.213,-0.753 0.224,-0.75 0.231,-0.745C0.231,-0.718 0.237,-0.654 0.25,-0.552C0.263,-0.452 0.27,-0.384 0.27,-0.347C0.27,-0.312 0.274,-0.261 0.281,-0.195C0.288,-0.128 0.291,-0.074 0.291,-0.034C0.291,-0.011 0.28,0 0.258,0ZM0.206,-0.215C0.211,-0.215 0.218,-0.216 0.226,-0.218C0.224,-0.247 0.221,-0.284 0.216,-0.327C0.201,-0.478 0.193,-0.57 0.193,-0.604L0.193,-0.612C0.186,-0.605 0.177,-0.575 0.166,-0.522C0.154,-0.468 0.143,-0.41 0.133,-0.349C0.123,-0.288 0.118,-0.247 0.117,-0.227C0.145,-0.219 0.175,-0.215 0.206,-0.215Z" style="fill:rgb(255,0,82);fill-rule:nonzero;"/>
        </g>
        <g transform="matrix(12,0,0,12,134.548,126.209)">
            <path d="M0.125,-0.003C0.11,-0.004 0.099,-0.01 0.09,-0.02C0.081,-0.029 0.077,-0.042 0.077,-0.057L0.077,-0.079C0.077,-0.084 0.077,-0.091 0.078,-0.099C0.078,-0.106 0.078,-0.115 0.077,-0.125L0.067,-0.308L0.065,-0.355C0.064,-0.398 0.062,-0.429 0.061,-0.449L0.057,-0.502C0.053,-0.547 0.05,-0.581 0.049,-0.604C0.048,-0.622 0.047,-0.664 0.047,-0.73L0.046,-0.739C0.046,-0.746 0.048,-0.752 0.053,-0.755C0.058,-0.757 0.066,-0.759 0.077,-0.758C0.082,-0.757 0.087,-0.755 0.093,-0.752C0.098,-0.748 0.102,-0.745 0.105,-0.744C0.108,-0.741 0.11,-0.738 0.11,-0.734C0.11,-0.731 0.11,-0.728 0.109,-0.725C0.108,-0.722 0.108,-0.72 0.108,-0.717C0.109,-0.671 0.11,-0.604 0.111,-0.518C0.112,-0.431 0.112,-0.401 0.111,-0.428C0.112,-0.418 0.112,-0.403 0.112,-0.382C0.113,-0.367 0.113,-0.347 0.114,-0.325C0.115,-0.302 0.116,-0.275 0.118,-0.245C0.12,-0.211 0.124,-0.156 0.131,-0.08L0.134,-0.049L0.219,-0.049L0.219,-0.224C0.219,-0.29 0.219,-0.35 0.218,-0.405C0.217,-0.459 0.216,-0.514 0.214,-0.57C0.211,-0.637 0.21,-0.68 0.21,-0.699C0.208,-0.713 0.207,-0.72 0.207,-0.721C0.207,-0.726 0.208,-0.729 0.209,-0.731C0.214,-0.742 0.221,-0.747 0.232,-0.747C0.237,-0.747 0.243,-0.745 0.249,-0.741C0.259,-0.734 0.264,-0.722 0.264,-0.704C0.263,-0.693 0.263,-0.672 0.263,-0.64C0.262,-0.608 0.262,-0.576 0.262,-0.544L0.262,-0.273C0.262,-0.237 0.263,-0.197 0.264,-0.152C0.265,-0.107 0.266,-0.073 0.267,-0.05C0.267,-0.049 0.272,-0.048 0.283,-0.047C0.294,-0.046 0.305,-0.045 0.317,-0.045C0.332,-0.045 0.344,-0.046 0.355,-0.047L0.357,-0.08L0.357,-0.296C0.357,-0.357 0.356,-0.402 0.355,-0.433L0.351,-0.533C0.349,-0.56 0.347,-0.62 0.345,-0.715L0.344,-0.732C0.344,-0.741 0.346,-0.749 0.351,-0.755C0.359,-0.763 0.366,-0.767 0.372,-0.767C0.377,-0.767 0.383,-0.765 0.388,-0.76C0.396,-0.754 0.399,-0.742 0.398,-0.725C0.395,-0.706 0.394,-0.693 0.394,-0.684L0.397,-0.605C0.398,-0.57 0.399,-0.544 0.399,-0.526L0.406,-0.204L0.406,-0.14C0.406,-0.098 0.407,-0.066 0.41,-0.045C0.411,-0.034 0.408,-0.024 0.401,-0.015C0.393,-0.006 0.383,-0.001 0.372,-0.001L0.125,-0.003Z" style="fill:rgb(255,0,82);fill-rule:nonzero;"/>
        </g>
        <g transform="matrix(12,0,0,12,140.26,126.209)">
            <path d="M0.117,0.006C0.104,0.006 0.093,0.004 0.084,0.001C0.073,-0.002 0.067,-0.012 0.067,-0.027L0.067,-0.608C0.067,-0.619 0.065,-0.636 0.061,-0.659C0.056,-0.68 0.054,-0.697 0.054,-0.71L0.054,-0.713C0.065,-0.732 0.074,-0.744 0.079,-0.749C0.088,-0.749 0.101,-0.75 0.116,-0.753C0.13,-0.756 0.142,-0.757 0.153,-0.757C0.164,-0.757 0.174,-0.754 0.184,-0.748C0.194,-0.741 0.199,-0.734 0.199,-0.725C0.199,-0.705 0.184,-0.695 0.153,-0.695L0.139,-0.695C0.135,-0.696 0.13,-0.696 0.125,-0.696C0.119,-0.696 0.115,-0.696 0.114,-0.695C0.114,-0.672 0.115,-0.645 0.118,-0.613L0.12,-0.585L0.122,-0.53C0.122,-0.517 0.121,-0.498 0.119,-0.472L0.117,-0.416L0.131,-0.419C0.144,-0.423 0.155,-0.425 0.164,-0.425C0.171,-0.425 0.178,-0.422 0.184,-0.417C0.19,-0.411 0.193,-0.404 0.193,-0.397C0.193,-0.389 0.191,-0.382 0.186,-0.376C0.181,-0.369 0.174,-0.366 0.167,-0.366L0.155,-0.367L0.142,-0.367C0.132,-0.367 0.125,-0.365 0.121,-0.36L0.121,-0.051L0.177,-0.054C0.215,-0.054 0.234,-0.045 0.234,-0.028L0.234,-0.024C0.23,-0.016 0.223,-0.01 0.212,-0.005C0.201,0 0.191,0.004 0.181,0.005L0.148,0.006L0.117,0.006Z" style="fill:rgb(255,0,82);fill-rule:nonzero;"/>
        </g>
        <g transform="matrix(12,0,0,12,145.792,126.209)">
            <path d="M0.07,0.018C0.065,0.019 0.061,0.02 0.058,0.02C0.05,0.02 0.039,0.016 0.026,0.008C0.022,0.005 0.02,0.001 0.02,-0.004C0.02,-0.01 0.023,-0.014 0.029,-0.016C0.045,-0.021 0.056,-0.03 0.063,-0.042C0.069,-0.053 0.074,-0.065 0.077,-0.078C0.08,-0.091 0.082,-0.1 0.083,-0.105C0.095,-0.148 0.101,-0.204 0.101,-0.272C0.101,-0.281 0.102,-0.294 0.103,-0.313C0.104,-0.33 0.105,-0.344 0.105,-0.353C0.105,-0.378 0.104,-0.416 0.103,-0.465L0.102,-0.521C0.101,-0.59 0.1,-0.649 0.1,-0.696C0.1,-0.703 0.1,-0.712 0.102,-0.724C0.102,-0.736 0.104,-0.743 0.107,-0.746C0.11,-0.749 0.113,-0.75 0.118,-0.751C0.123,-0.752 0.126,-0.752 0.127,-0.752C0.13,-0.753 0.137,-0.755 0.15,-0.758C0.162,-0.761 0.174,-0.762 0.187,-0.762C0.194,-0.762 0.199,-0.762 0.202,-0.761C0.208,-0.758 0.222,-0.756 0.245,-0.755C0.267,-0.753 0.279,-0.752 0.282,-0.752C0.285,-0.752 0.286,-0.751 0.286,-0.749C0.287,-0.746 0.289,-0.74 0.29,-0.732C0.291,-0.725 0.29,-0.705 0.287,-0.671L0.285,-0.635C0.285,-0.61 0.287,-0.579 0.29,-0.542C0.293,-0.499 0.297,-0.438 0.301,-0.358C0.302,-0.29 0.304,-0.239 0.305,-0.206L0.311,-0.076L0.314,-0.05C0.315,-0.038 0.316,-0.029 0.316,-0.024C0.316,-0.018 0.315,-0.013 0.312,-0.008C0.309,-0.003 0.305,0 0.3,0.002C0.297,0.003 0.292,0.004 0.285,0.004C0.276,0.004 0.269,0.001 0.263,-0.004C0.257,-0.009 0.254,-0.018 0.254,-0.03C0.255,-0.067 0.255,-0.123 0.255,-0.197C0.255,-0.308 0.25,-0.414 0.24,-0.515C0.238,-0.536 0.237,-0.571 0.236,-0.619C0.235,-0.667 0.234,-0.7 0.234,-0.717L0.152,-0.716C0.151,-0.716 0.151,-0.709 0.152,-0.696C0.153,-0.683 0.153,-0.675 0.153,-0.672C0.152,-0.643 0.152,-0.594 0.152,-0.526L0.152,-0.468C0.153,-0.448 0.153,-0.431 0.153,-0.416C0.152,-0.401 0.152,-0.388 0.152,-0.378C0.151,-0.357 0.151,-0.327 0.151,-0.287C0.151,-0.236 0.148,-0.184 0.142,-0.133C0.139,-0.107 0.135,-0.086 0.131,-0.069C0.127,-0.052 0.121,-0.035 0.112,-0.02C0.102,-0.002 0.088,0.011 0.07,0.018Z" style="fill:rgb(255,0,82);fill-rule:nonzero;"/>
        </g>
        <g transform="matrix(12,0,0,12,150.376,126.209)">
            <path d="M0.191,0.028C0.173,0.028 0.157,0.022 0.142,0.01C0.127,-0.002 0.115,-0.018 0.104,-0.039C0.085,-0.075 0.07,-0.124 0.061,-0.187C0.054,-0.23 0.049,-0.28 0.046,-0.337L0.045,-0.39L0.045,-0.444C0.044,-0.461 0.044,-0.482 0.044,-0.507C0.044,-0.547 0.046,-0.582 0.049,-0.613C0.052,-0.645 0.058,-0.677 0.069,-0.708C0.08,-0.735 0.095,-0.755 0.115,-0.766C0.127,-0.771 0.139,-0.774 0.151,-0.774C0.186,-0.774 0.214,-0.76 0.235,-0.732C0.258,-0.701 0.273,-0.666 0.28,-0.627C0.291,-0.58 0.297,-0.536 0.298,-0.493C0.301,-0.446 0.302,-0.401 0.302,-0.359L0.302,-0.302C0.302,-0.291 0.3,-0.269 0.297,-0.238C0.294,-0.213 0.293,-0.192 0.293,-0.175L0.293,-0.171C0.289,-0.152 0.287,-0.13 0.287,-0.105C0.287,-0.086 0.283,-0.067 0.275,-0.047C0.267,-0.027 0.256,-0.01 0.241,0.004C0.226,0.02 0.21,0.028 0.191,0.028ZM0.193,-0.027C0.206,-0.027 0.218,-0.039 0.227,-0.064C0.235,-0.086 0.241,-0.113 0.245,-0.145C0.248,-0.176 0.251,-0.212 0.254,-0.252C0.255,-0.269 0.256,-0.292 0.256,-0.319L0.255,-0.411C0.254,-0.447 0.25,-0.492 0.243,-0.546C0.238,-0.592 0.228,-0.633 0.213,-0.668C0.206,-0.685 0.198,-0.698 0.188,-0.707C0.178,-0.716 0.167,-0.721 0.156,-0.721C0.139,-0.721 0.127,-0.708 0.119,-0.682C0.109,-0.655 0.102,-0.625 0.099,-0.592C0.095,-0.557 0.093,-0.523 0.092,-0.491L0.091,-0.458C0.09,-0.449 0.09,-0.436 0.09,-0.42L0.09,-0.416C0.09,-0.371 0.095,-0.316 0.104,-0.251C0.115,-0.162 0.13,-0.099 0.151,-0.062C0.164,-0.039 0.178,-0.027 0.193,-0.027Z" style="fill:rgb(255,0,82);fill-rule:nonzero;"/>
        </g>
        <g transform="matrix(12,0,0,12,154.636,126.209)">
            <path d="M0.097,0C0.09,0 0.086,-0.002 0.083,-0.006C0.08,-0.009 0.077,-0.015 0.076,-0.024C0.074,-0.043 0.073,-0.061 0.074,-0.076C0.076,-0.099 0.077,-0.133 0.077,-0.179C0.077,-0.22 0.076,-0.261 0.074,-0.302C0.073,-0.343 0.072,-0.375 0.072,-0.396C0.072,-0.403 0.072,-0.408 0.071,-0.413C0.07,-0.418 0.07,-0.422 0.069,-0.425L0.066,-0.456C0.065,-0.477 0.063,-0.51 0.062,-0.554L0.06,-0.602C0.059,-0.622 0.058,-0.654 0.055,-0.697C0.054,-0.712 0.055,-0.722 0.06,-0.729C0.065,-0.736 0.074,-0.74 0.089,-0.743C0.094,-0.744 0.104,-0.747 0.119,-0.751C0.134,-0.754 0.149,-0.756 0.162,-0.756C0.168,-0.756 0.173,-0.756 0.176,-0.755C0.183,-0.754 0.188,-0.752 0.192,-0.748C0.195,-0.744 0.197,-0.739 0.197,-0.733C0.198,-0.727 0.196,-0.721 0.193,-0.715C0.19,-0.708 0.185,-0.704 0.18,-0.702C0.178,-0.701 0.174,-0.701 0.169,-0.701C0.165,-0.701 0.161,-0.701 0.157,-0.702C0.152,-0.703 0.147,-0.703 0.142,-0.703C0.135,-0.703 0.128,-0.702 0.121,-0.7C0.116,-0.699 0.113,-0.697 0.112,-0.694C0.11,-0.69 0.109,-0.684 0.108,-0.677C0.107,-0.654 0.109,-0.619 0.113,-0.574C0.117,-0.534 0.119,-0.504 0.119,-0.485C0.118,-0.472 0.119,-0.454 0.122,-0.43L0.124,-0.406C0.125,-0.385 0.127,-0.348 0.128,-0.297C0.129,-0.245 0.13,-0.198 0.131,-0.157C0.131,-0.134 0.131,-0.118 0.132,-0.107C0.132,-0.073 0.132,-0.048 0.133,-0.031C0.134,-0.022 0.132,-0.015 0.128,-0.01C0.123,-0.005 0.116,-0.002 0.105,-0.001L0.097,0Z" style="fill:rgb(255,0,82);fill-rule:nonzero;"/>
        </g>
        <g transform="matrix(12,0,0,12,157.648,126.209)">
            <path d="M0.191,0.028C0.173,0.028 0.157,0.022 0.142,0.01C0.127,-0.002 0.115,-0.018 0.104,-0.039C0.085,-0.075 0.07,-0.124 0.061,-0.187C0.054,-0.23 0.049,-0.28 0.046,-0.337L0.045,-0.39L0.045,-0.444C0.044,-0.461 0.044,-0.482 0.044,-0.507C0.044,-0.547 0.046,-0.582 0.049,-0.613C0.052,-0.645 0.058,-0.677 0.069,-0.708C0.08,-0.735 0.095,-0.755 0.115,-0.766C0.127,-0.771 0.139,-0.774 0.151,-0.774C0.186,-0.774 0.214,-0.76 0.235,-0.732C0.258,-0.701 0.273,-0.666 0.28,-0.627C0.291,-0.58 0.297,-0.536 0.298,-0.493C0.301,-0.446 0.302,-0.401 0.302,-0.359L0.302,-0.302C0.302,-0.291 0.3,-0.269 0.297,-0.238C0.294,-0.213 0.293,-0.192 0.293,-0.175L0.293,-0.171C0.289,-0.152 0.287,-0.13 0.287,-0.105C0.287,-0.086 0.283,-0.067 0.275,-0.047C0.267,-0.027 0.256,-0.01 0.241,0.004C0.226,0.02 0.21,0.028 0.191,0.028ZM0.193,-0.027C0.206,-0.027 0.218,-0.039 0.227,-0.064C0.235,-0.086 0.241,-0.113 0.245,-0.145C0.248,-0.176 0.251,-0.212 0.254,-0.252C0.255,-0.269 0.256,-0.292 0.256,-0.319L0.255,-0.411C0.254,-0.447 0.25,-0.492 0.243,-0.546C0.238,-0.592 0.228,-0.633 0.213,-0.668C0.206,-0.685 0.198,-0.698 0.188,-0.707C0.178,-0.716 0.167,-0.721 0.156,-0.721C0.139,-0.721 0.127,-0.708 0.119,-0.682C0.109,-0.655 0.102,-0.625 0.099,-0.592C0.095,-0.557 0.093,-0.523 0.092,-0.491L0.091,-0.458C0.09,-0.449 0.09,-0.436 0.09,-0.42L0.09,-0.416C0.09,-0.371 0.095,-0.316 0.104,-0.251C0.115,-0.162 0.13,-0.099 0.151,-0.062C0.164,-0.039 0.178,-0.027 0.193,-0.027Z" style="fill:rgb(255,0,82);fill-rule:nonzero;"/>
        </g>
    </g>
    <g transform="matrix(1,0,0,1,-26.8532,-66.1158)">
        <path d="M76.664,89.554L76.576,89.551L76.488,89.548L76.396,89.543L76.225,89.531L76.051,89.516L75.878,89.498L75.705,89.478L75.533,89.456L75.361,89.431L75.19,89.405L75.02,89.378L74.85,89.35L74.68,89.321L74.345,89.261L74.013,89.202L73.684,89.143L73.523,89.115L73.363,89.089L73.205,89.063L73.049,89.039L72.896,89.016L72.745,88.995L72.597,88.977L72.453,88.96L72.311,88.946L72.173,88.934L72.036,88.925L71.974,88.921L71.91,88.918L71.847,88.916L71.785,88.915L71.725,88.914L71.665,88.914L71.607,88.914L71.551,88.916L71.496,88.918L71.442,88.92L71.39,88.924L71.339,88.928L71.29,88.932L71.242,88.937L71.196,88.943L71.152,88.95L71.109,88.957L71.069,88.964L71.029,88.972L70.992,88.981L70.956,88.989L70.922,88.998L70.89,89.008L70.859,89.018L70.83,89.028L70.803,89.038L70.777,89.048L70.734,89.067L70.771,89.049L70.729,89.069L70.689,89.09L70.726,89.069L70.687,89.09L70.649,89.113L70.687,89.089L70.649,89.112L70.613,89.137L70.65,89.11L70.615,89.135L70.58,89.162L70.617,89.131L70.583,89.159L70.55,89.188L70.585,89.155L70.553,89.185L70.521,89.216L70.554,89.181L70.523,89.214L70.493,89.248L70.524,89.211L70.494,89.247L70.465,89.285L70.492,89.246L70.464,89.286L70.436,89.327L70.46,89.288L70.433,89.332L70.406,89.377L70.427,89.338L70.401,89.386L70.385,89.416L70.369,89.449L70.353,89.485L70.336,89.523L70.32,89.565L70.305,89.609L70.289,89.657L70.274,89.708L70.259,89.762L70.245,89.819L70.232,89.88L70.219,89.944L70.207,90.011L70.196,90.082L70.19,90.13L70.187,90.157L70.178,90.235L70.17,90.317L70.163,90.402L70.158,90.491L70.154,90.584L70.152,90.691L70.152,90.701L69.706,91.719L68.692,92.14L68.672,92.14L67.664,91.703L67.236,90.679L67.236,90.669L67.235,90.537L67.237,90.397L67.241,90.258L67.248,90.121L67.256,89.985L67.268,89.852L67.272,89.804L67.281,89.72L67.297,89.589L67.316,89.461L67.337,89.333L67.361,89.208L67.388,89.084L67.417,88.961L67.449,88.84L67.484,88.721L67.521,88.603L67.562,88.487L67.605,88.372L67.652,88.259L67.701,88.148L67.753,88.039L67.809,87.932L67.867,87.827L67.928,87.724L67.993,87.623L68.06,87.525L68.13,87.429L68.203,87.336L68.279,87.246L68.357,87.158L68.437,87.073L68.52,86.992L68.605,86.913L68.692,86.838L68.781,86.766L68.872,86.697L68.964,86.631L69.057,86.569L69.151,86.51L69.247,86.454L69.343,86.401L69.44,86.351L69.538,86.304L69.636,86.261L69.735,86.22L69.834,86.182L69.933,86.146L70.032,86.114L70.131,86.083L70.23,86.055L70.329,86.03L70.428,86.006L70.527,85.985L70.626,85.966L70.724,85.948L70.823,85.933L70.921,85.919L71.018,85.907L71.116,85.896L71.213,85.887L71.31,85.88L71.407,85.873L71.504,85.868L71.6,85.865L71.696,85.862L71.792,85.861L71.888,85.861L71.983,85.861L72.078,85.863L72.176,85.866L72.361,85.874L72.549,85.885L72.735,85.898L72.92,85.914L73.104,85.933L73.287,85.953L73.469,85.975L73.649,85.998L73.827,86.022L74.004,86.047L74.179,86.073L74.521,86.124L74.854,86.175L75.179,86.224L75.334,86.246L75.487,86.268L75.637,86.288L75.782,86.306L75.923,86.322L76.059,86.336L76.19,86.348L76.315,86.358L76.435,86.365L76.552,86.369L76.602,86.371L76.654,86.371L76.704,86.371L76.763,86.371L76.763,86.371L76.929,86.37L77.106,86.371L77.283,86.375L77.46,86.381L77.637,86.389L77.815,86.399L77.992,86.411L78.17,86.425L78.348,86.442L78.525,86.46L78.703,86.481L78.882,86.503L79.06,86.527L79.185,86.546L79.238,86.554L79.416,86.582L79.594,86.612L79.773,86.645L79.951,86.679L80.129,86.714L80.307,86.752L80.486,86.791L80.664,86.832L80.842,86.875L81.02,86.92L81.199,86.966L81.377,87.014L81.555,87.063L81.733,87.114L81.911,87.167L82.088,87.221L82.266,87.277L82.444,87.334L82.621,87.393L82.799,87.453L82.976,87.514L83.153,87.577L83.33,87.642L83.507,87.708L83.683,87.775L83.86,87.844L84.036,87.914L84.212,87.985L84.388,88.057L84.564,88.131L84.739,88.206L84.915,88.283L85.09,88.36L85.265,88.439L85.439,88.519L85.613,88.6L85.787,88.682L85.961,88.765L86.134,88.85L86.308,88.935L86.48,89.022L86.653,89.11L86.825,89.198L86.997,89.288L87.168,89.379L87.339,89.47L87.51,89.563L87.681,89.657L87.851,89.751L88.02,89.846L88.189,89.943L88.358,90.04L88.526,90.138L88.694,90.237L88.862,90.337L89.029,90.437L89.195,90.538L89.361,90.64L89.527,90.743L89.692,90.847L89.856,90.951L90.02,91.056L90.183,91.162L90.346,91.268L90.509,91.375L90.67,91.482L90.831,91.591L90.992,91.699L91.152,91.809L91.311,91.919L91.47,92.029L91.628,92.14L91.786,92.252L91.944,92.365L92.254,92.589L92.563,92.816L92.869,93.045L93.172,93.275L93.472,93.507L93.769,93.74L94.063,93.974L94.353,94.209L94.64,94.445L94.924,94.681L95.204,94.918L95.48,95.156L95.752,95.394L96.021,95.632L96.286,95.87L96.547,96.108L96.803,96.346L97.056,96.583L97.304,96.82L97.551,97.06L97.678,97.186L97.805,97.318L97.931,97.452L98.054,97.588L98.175,97.726L98.293,97.866L98.41,98.008L98.525,98.151L98.637,98.296L98.748,98.442L98.857,98.59L98.964,98.739L99.069,98.89L99.173,99.042L99.275,99.195L99.375,99.349L99.474,99.505L99.571,99.661L99.666,99.819L99.76,99.977L99.852,100.136L99.943,100.296L100.033,100.457L100.121,100.618L100.208,100.78L100.293,100.943L100.378,101.106L100.46,101.269L100.542,101.433L100.622,101.597L100.702,101.761L100.78,101.926L100.856,102.091L100.932,102.256L101.006,102.42L101.08,102.585L101.152,102.75L101.223,102.914L101.293,103.079L101.362,103.242L101.43,103.406L101.498,103.571L101.628,103.894L101.755,104.216L101.878,104.536L101.997,104.851L102.113,105.163L102.225,105.47L102.334,105.772L102.44,106.069L102.542,106.359L102.552,106.388L102.736,106.919L102.827,107.185L102.916,107.453L103.005,107.721L103.091,107.989L103.176,108.258L103.26,108.527L103.342,108.796L103.422,109.066L103.501,109.336L103.579,109.606L103.654,109.876L103.729,110.147L103.801,110.418L103.873,110.689L103.942,110.961L104.011,111.233L104.077,111.505L104.142,111.777L104.206,112.049L104.268,112.322L104.328,112.595L104.387,112.868L104.444,113.141L104.5,113.414L104.555,113.688L104.607,113.961L104.659,114.235L104.708,114.509L104.756,114.783L104.803,115.057L104.848,115.331L104.891,115.606L104.933,115.88L104.974,116.154L105.013,116.429L105.05,116.703L105.086,116.978L105.12,117.253L105.153,117.527L105.184,117.802L105.213,118.077L105.241,118.351L105.268,118.626L105.293,118.901L105.316,119.175L105.338,119.45L105.358,119.724L105.377,119.999L105.394,120.273L105.41,120.547L105.424,120.821L105.437,121.095L105.448,121.369L105.457,121.643L105.465,121.917L105.471,122.191L105.476,122.464L105.479,122.737L105.481,123.011L105.481,123.284L105.48,123.556L105.477,123.829L105.472,124.101L105.466,124.374L105.458,124.646L105.449,124.917L105.438,125.189L105.433,125.314L105.426,125.46L105.411,125.731L105.396,126.002L105.378,126.272L105.359,126.543L105.339,126.812L105.316,127.082L105.293,127.351L105.267,127.62L105.241,127.889L105.212,128.157L105.182,128.425L105.151,128.693L105.118,128.96L105.083,129.227L105.047,129.493L105.009,129.759L104.969,130.025L104.929,130.29L104.886,130.555L104.842,130.819L104.796,131.083L104.749,131.346L104.7,131.609L104.65,131.872L104.598,132.134L104.544,132.395L104.489,132.656L104.432,132.917L104.374,133.177L104.314,133.436L104.252,133.695L104.189,133.954L104.124,134.212L104.058,134.469L103.99,134.725L103.921,134.982L103.849,135.237L103.777,135.492L103.703,135.746L103.627,136L103.549,136.253L103.47,136.505L103.389,136.757L103.307,137.008L103.223,137.258L103.138,137.508L103.051,137.757L102.962,138.005L102.872,138.253L102.78,138.5L102.686,138.746L102.591,138.991L102.494,139.236L102.396,139.479L102.296,139.722L102.194,139.965L102.091,140.206L101.986,140.447L101.88,140.687L101.772,140.926L101.662,141.164L101.551,141.401L101.438,141.638L101.323,141.873L101.207,142.108L101.089,142.342L100.97,142.575L100.849,142.807L100.726,143.038L100.602,143.268L100.476,143.497L100.348,143.725L100.219,143.953L100.088,144.179L99.955,144.404L99.948,144.417L99.821,144.628L99.684,144.851L99.546,145.073L99.407,145.294L99.266,145.514L99.123,145.733L98.978,145.951L98.832,146.167L98.684,146.383L98.535,146.597L98.384,146.811L98.231,147.023L98.077,147.234L97.921,147.444L97.763,147.653L97.604,147.86L97.443,148.067L97.28,148.272L97.116,148.476L96.95,148.679L96.783,148.88L96.614,149.081L96.443,149.28L96.271,149.478L96.097,149.674L95.921,149.869L95.743,150.063L95.564,150.256L95.384,150.447L95.201,150.637L95.018,150.825L94.832,151.013L94.645,151.198L94.456,151.383L94.265,151.566L94.073,151.748L93.879,151.928L93.684,152.107L93.487,152.284L93.288,152.46L93.088,152.634L92.886,152.807L92.682,152.979L92.477,153.148L92.27,153.317L92.062,153.484L91.852,153.649L91.64,153.813L91.426,153.975L91.211,154.136L90.995,154.295L90.777,154.452L90.557,154.608L90.335,154.762L90.112,154.915L89.888,155.066L89.661,155.215L89.433,155.363L89.204,155.509L88.973,155.653L88.74,155.795L88.506,155.936L88.27,156.075L88.032,156.213L87.793,156.348L87.553,156.482L87.31,156.614L87.067,156.744L86.821,156.873L86.574,156.999L86.326,157.124L86.076,157.247L85.824,157.369L85.717,157.419L85.57,157.488L85.315,157.604L85.059,157.719L84.801,157.833L84.541,157.944L84.28,158.053L84.017,158.161L83.753,158.266L83.487,158.37L83.219,158.471L82.95,158.571L82.68,158.669L82.408,158.764L82.135,158.858L81.86,158.95L81.583,159.039L81.305,159.127L81.026,159.213L80.745,159.297L80.462,159.378L80.178,159.458L79.893,159.535L79.606,159.611L79.318,159.684L79.028,159.755L78.736,159.825L78.443,159.892L78.149,159.957L77.853,160.019L77.556,160.08L77.257,160.139L77.194,160.151L76.957,160.195L76.655,160.248L76.352,160.3L76.047,160.349L75.741,160.396L75.434,160.441L75.125,160.484L74.815,160.524L74.503,160.562L74.198,160.597L73.891,160.631L73.583,160.662L73.272,160.692L72.96,160.72L72.646,160.746L72.33,160.77L72.013,160.792L71.694,160.813L71.373,160.831L71.051,160.848L70.727,160.863L70.401,160.876L70.075,160.887L69.746,160.897L69.417,160.904L69.159,160.908L69.086,160.909L68.754,160.912L68.42,160.912L68.086,160.911L67.75,160.907L67.413,160.902L67.076,160.895L66.737,160.886L66.397,160.875L66.056,160.862L65.715,160.847L65.372,160.83L65.029,160.811L64.685,160.79L64.34,160.767L63.995,160.742L63.649,160.715L63.303,160.686L62.956,160.655L62.608,160.622L62.261,160.587L61.912,160.55L61.564,160.511L61.215,160.469L60.866,160.426L60.516,160.381L60.167,160.333L59.817,160.283L59.468,160.232L59.118,160.178L58.768,160.122L58.419,160.064L58.069,160.003L57.72,159.941L57.371,159.876L57.022,159.81L56.673,159.741L56.325,159.669L55.977,159.596L55.629,159.52L55.282,159.442L54.936,159.362L54.59,159.28L54.245,159.195L53.9,159.108L53.569,159.022L53.556,159.019L53.213,158.926L52.871,158.832L52.53,158.734L52.189,158.635L51.85,158.533L51.512,158.429L51.174,158.322L50.838,158.213L50.503,158.102L50.169,157.988L49.836,157.872L49.504,157.753L49.174,157.632L48.845,157.508L48.517,157.382L48.191,157.254L47.867,157.123L47.544,156.989L47.222,156.853L46.903,156.714L46.584,156.573L46.268,156.429L45.953,156.283L45.643,156.135L45.485,156.058L45.33,155.982L45.175,155.905L45.021,155.827L44.867,155.749L44.714,155.67L44.561,155.591L44.409,155.511L44.257,155.43L44.106,155.348L43.955,155.266L43.805,155.183L43.655,155.099L43.506,155.015L43.358,154.93L43.21,154.844L43.062,154.758L42.916,154.671L42.769,154.583L42.624,154.495L42.479,154.405L42.334,154.316L42.191,154.225L42.047,154.134L41.905,154.042L41.763,153.949L41.621,153.855L41.481,153.761L41.341,153.666L41.201,153.571L41.063,153.474L40.925,153.377L40.787,153.279L40.65,153.181L40.514,153.081L40.379,152.981L40.245,152.88L40.111,152.779L39.977,152.676L39.845,152.573L39.713,152.47L39.582,152.365L39.452,152.26L39.323,152.154L39.194,152.047L39.066,151.939L38.939,151.831L38.812,151.721L38.687,151.611L38.562,151.501L38.456,151.405L38.438,151.389L38.315,151.277L38.193,151.163L38.072,151.049L37.952,150.934L37.832,150.818L37.713,150.702L37.596,150.585L37.479,150.467L37.363,150.348L37.247,150.228L37.133,150.108L37.02,149.986L36.908,149.864L36.796,149.741L36.686,149.618L36.576,149.493L36.467,149.368L36.36,149.242L36.253,149.115L36.148,148.987L36.043,148.859L35.939,148.73L35.837,148.599L35.735,148.468L35.634,148.337L35.535,148.204L35.436,148.071L35.339,147.936L35.243,147.801L35.147,147.666L35.053,147.529L34.96,147.391L34.869,147.254L34.78,147.118L34.692,146.982L34.605,146.846L34.519,146.709L34.433,146.572L34.348,146.435L34.264,146.297L34.181,146.158L34.098,146.019L34.016,145.88L33.935,145.74L33.855,145.6L33.775,145.459L33.696,145.318L33.618,145.176L33.54,145.034L33.463,144.892L33.387,144.749L33.312,144.606L33.237,144.462L33.163,144.318L33.09,144.173L33.017,144.028L32.945,143.883L32.874,143.737L32.803,143.589L32.665,143.298L32.529,143.003L32.396,142.707L32.266,142.409L32.139,142.11L32.014,141.809L31.892,141.507L31.773,141.203L31.657,140.898L31.543,140.592L31.433,140.285L31.324,139.976L31.219,139.666L31.116,139.354L31.016,139.042L30.919,138.728L30.825,138.413L30.733,138.097L30.643,137.78L30.557,137.462L30.473,137.143L30.392,136.823L30.313,136.502L30.237,136.179L30.202,136.027L30.164,135.856L30.093,135.532L30.026,135.206L29.961,134.88L29.898,134.553L29.838,134.226L29.78,133.897L29.726,133.567L29.673,133.237L29.623,132.906L29.576,132.574L29.531,132.242L29.489,131.909L29.449,131.575L29.412,131.241L29.377,130.905L29.344,130.57L29.315,130.233L29.287,129.897L29.262,129.559L29.239,129.221L29.219,128.883L29.202,128.544L29.186,128.205L29.173,127.865L29.163,127.525L29.155,127.184L29.149,126.843L29.145,126.502L29.144,126.16L29.146,125.818L29.149,125.476L29.155,125.133L29.164,124.791L29.175,124.448L29.188,124.104L29.203,123.761L29.221,123.418L29.241,123.074L29.263,122.73L29.287,122.386L29.314,122.042L29.343,121.698L29.375,121.354L29.408,121.01L29.444,120.666L29.482,120.322L29.523,119.978L29.565,119.634L29.61,119.291L29.631,119.141L29.658,118.947L29.708,118.604L29.76,118.26L29.814,117.917L29.871,117.574L29.929,117.232L29.99,116.889L30.053,116.547L30.119,116.206L30.186,115.864L30.256,115.523L30.328,115.182L30.402,114.842L30.478,114.502L30.556,114.162L30.636,113.823L30.719,113.484L30.803,113.146L30.89,112.809L30.979,112.472L31.07,112.135L31.163,111.799L31.258,111.464L31.355,111.129L31.455,110.795L31.556,110.461L31.66,110.128L31.765,109.796L31.873,109.465L31.983,109.134L32.094,108.804L32.208,108.475L32.324,108.147L32.442,107.82L32.562,107.493L32.684,107.167L32.808,106.843L32.934,106.519L33.062,106.196L33.192,105.874L33.324,105.553L33.458,105.233L33.594,104.914L33.732,104.596L33.872,104.279L34.014,103.964L34.158,103.649L34.304,103.336L34.452,103.023L34.601,102.712L34.753,102.403L34.907,102.094L35.063,101.786L35.22,101.48L35.38,101.176L35.541,100.872L35.705,100.57L35.87,100.269L36.038,99.97L36.207,99.672L36.378,99.375L36.551,99.08L36.726,98.786L36.903,98.494L37.082,98.203L37.262,97.914L37.445,97.627L37.629,97.341L37.816,97.057L38.004,96.774L38.194,96.493L38.386,96.214L38.58,95.936L38.775,95.66L38.973,95.386L39.172,95.114L39.373,94.843L39.576,94.574L39.781,94.307L39.988,94.042L40.196,93.779L40.407,93.518L40.619,93.258L40.833,93.001L41.049,92.746L41.267,92.492L41.486,92.241L41.707,91.992L41.93,91.745L42.155,91.5L42.382,91.257L42.568,91.061L42.61,91.016L42.841,90.778L43.073,90.542L43.307,90.308L43.543,90.076L43.781,89.847L44.02,89.62L44.261,89.395L44.504,89.173L44.749,88.953L44.995,88.735L45.243,88.52L45.493,88.308L45.745,88.097L45.998,87.89L46.253,87.685L46.509,87.482L46.768,87.282L47.028,87.085L47.29,86.89L47.552,86.699L47.686,86.603L47.818,86.508L47.952,86.415L48.085,86.322L48.219,86.229L48.354,86.138L48.488,86.047L48.624,85.957L48.759,85.867L48.896,85.778L49.032,85.69L49.169,85.603L49.306,85.516L49.444,85.43L49.582,85.345L49.721,85.26L49.86,85.176L49.999,85.093L50.139,85.011L50.279,84.929L50.42,84.848L50.561,84.768L50.702,84.689L50.844,84.61L50.986,84.532L51.129,84.455L51.272,84.378L51.415,84.303L51.559,84.228L51.703,84.154L51.848,84.08L51.993,84.008L52.138,83.936L52.284,83.865L52.43,83.795L52.577,83.725L52.724,83.656L52.871,83.588L53.019,83.521L53.167,83.455L53.316,83.39L53.464,83.325L53.614,83.261L53.763,83.198L53.913,83.136L54.064,83.074L54.215,83.014L54.366,82.954L54.517,82.895L54.669,82.837L54.821,82.78L54.974,82.723L55.127,82.668L55.281,82.613L55.434,82.559L55.588,82.506L55.743,82.454L55.898,82.403L56.053,82.352L56.209,82.302L56.365,82.254L56.521,82.206L56.678,82.159L56.835,82.113L56.992,82.068L57.15,82.023L57.308,81.98L57.466,81.937L57.625,81.896L57.784,81.855L57.944,81.815L58.104,81.776L58.264,81.738L58.424,81.701L58.585,81.664L58.746,81.629L58.908,81.595L59.07,81.561L59.232,81.529L59.395,81.497L59.558,81.466L59.721,81.437L59.884,81.408L60.048,81.38L60.212,81.353L60.377,81.327L60.542,81.302L60.707,81.278L60.872,81.255L61.038,81.232L61.204,81.211L61.371,81.191L61.538,81.172L61.705,81.153L61.872,81.136L62.04,81.119L62.208,81.104L62.376,81.09L62.545,81.076L62.714,81.064L62.883,81.052L63.053,81.042L63.222,81.032L63.393,81.024L63.563,81.016L63.734,81.01L63.905,81.004L64.076,81L64.248,80.996L64.337,80.995L64.42,80.994L64.592,80.992L64.764,80.992L64.937,80.993L65.116,80.994L66.137,81.427L66.568,82.438L66.568,82.458L66.143,83.471L65.124,83.91L65.114,83.91L64.954,83.913L64.799,83.916L64.644,83.921L64.489,83.926L64.414,83.929L64.335,83.932L64.18,83.94L64.027,83.948L63.873,83.956L63.72,83.966L63.567,83.977L63.415,83.988L63.263,84.001L63.111,84.014L62.96,84.028L62.809,84.043L62.659,84.059L62.508,84.076L62.358,84.094L62.209,84.112L62.059,84.132L61.911,84.152L61.762,84.173L61.614,84.195L61.466,84.218L61.318,84.241L61.171,84.266L61.024,84.291L60.878,84.317L60.732,84.344L60.586,84.372L60.44,84.401L60.295,84.43L60.15,84.46L60.006,84.492L59.862,84.523L59.718,84.556L59.575,84.59L59.432,84.624L59.289,84.659L59.146,84.695L59.004,84.732L58.863,84.769L58.721,84.808L58.58,84.847L58.44,84.887L58.299,84.928L58.159,84.969L58.02,85.011L57.88,85.054L57.741,85.098L57.603,85.143L57.464,85.188L57.326,85.234L57.189,85.281L57.051,85.329L56.914,85.377L56.778,85.427L56.642,85.477L56.506,85.527L56.37,85.579L56.235,85.631L56.1,85.684L55.965,85.738L55.831,85.792L55.697,85.847L55.564,85.903L55.431,85.96L55.298,86.017L55.165,86.076L55.033,86.134L54.901,86.194L54.77,86.254L54.639,86.315L54.508,86.377L54.377,86.44L54.247,86.503L54.117,86.567L53.988,86.631L53.859,86.696L53.73,86.763L53.602,86.829L53.474,86.897L53.346,86.965L53.219,87.034L53.092,87.103L52.965,87.173L52.839,87.244L52.713,87.316L52.587,87.388L52.462,87.461L52.337,87.534L52.212,87.609L52.088,87.684L51.964,87.759L51.84,87.835L51.717,87.912L51.594,87.99L51.472,88.068L51.35,88.147L51.228,88.227L51.107,88.307L50.985,88.388L50.865,88.469L50.744,88.552L50.624,88.634L50.505,88.718L50.385,88.802L50.266,88.887L50.148,88.972L50.029,89.058L49.912,89.145L49.794,89.232L49.677,89.32L49.562,89.407L49.328,89.587L49.096,89.769L48.867,89.952L48.639,90.139L48.412,90.327L48.187,90.518L47.963,90.712L47.74,90.907L47.52,91.105L47.3,91.306L47.082,91.508L46.866,91.713L46.651,91.92L46.438,92.129L46.226,92.341L46.016,92.555L45.807,92.77L45.599,92.988L45.394,93.208L45.19,93.431L45.152,93.472L44.987,93.655L44.785,93.881L44.585,94.109L44.387,94.339L44.19,94.571L43.995,94.805L43.802,95.041L43.61,95.278L43.419,95.518L43.231,95.76L43.043,96.003L42.858,96.249L42.674,96.496L42.492,96.745L42.311,96.996L42.132,97.248L41.955,97.502L41.779,97.758L41.605,98.016L41.433,98.275L41.262,98.536L41.093,98.798L40.926,99.063L40.76,99.328L40.596,99.596L40.434,99.864L40.273,100.135L40.115,100.406L39.958,100.68L39.802,100.954L39.649,101.23L39.497,101.508L39.347,101.787L39.199,102.067L39.052,102.348L38.907,102.631L38.764,102.915L38.623,103.2L38.483,103.487L38.346,103.775L38.21,104.064L38.076,104.354L37.944,104.645L37.813,104.937L37.685,105.231L37.558,105.525L37.433,105.821L37.31,106.117L37.189,106.415L37.069,106.713L36.952,107.013L36.836,107.313L36.722,107.614L36.61,107.917L36.5,108.22L36.392,108.523L36.286,108.828L36.182,109.133L36.079,109.44L35.979,109.747L35.88,110.054L35.783,110.363L35.688,110.672L35.596,110.981L35.505,111.291L35.416,111.602L35.329,111.914L35.243,112.226L35.16,112.538L35.079,112.851L35,113.164L34.923,113.478L34.847,113.792L34.774,114.107L34.703,114.422L34.634,114.738L34.566,115.053L34.501,115.369L34.438,115.686L34.376,116.002L34.317,116.319L34.26,116.636L34.205,116.953L34.151,117.271L34.1,117.588L34.051,117.906L34.004,118.224L33.959,118.541L33.916,118.859L33.875,119.177L33.836,119.495L33.815,119.675L33.799,119.812L33.764,120.13L33.73,120.448L33.699,120.765L33.67,121.082L33.643,121.4L33.618,121.717L33.595,122.033L33.574,122.35L33.556,122.666L33.539,122.982L33.525,123.298L33.512,123.614L33.502,123.929L33.494,124.243L33.488,124.558L33.484,124.872L33.482,125.185L33.483,125.498L33.485,125.811L33.49,126.123L33.497,126.434L33.506,126.745L33.517,127.056L33.53,127.365L33.546,127.674L33.563,127.983L33.583,128.291L33.605,128.598L33.629,128.904L33.655,129.21L33.684,129.514L33.714,129.818L33.747,130.122L33.782,130.424L33.819,130.725L33.858,131.026L33.9,131.326L33.943,131.624L33.989,131.922L34.037,132.219L34.088,132.514L34.14,132.809L34.195,133.103L34.252,133.395L34.311,133.687L34.372,133.977L34.435,134.266L34.501,134.554L34.569,134.841L34.606,134.992L34.639,135.126L34.71,135.411L34.784,135.694L34.861,135.976L34.939,136.256L35.02,136.535L35.102,136.813L35.187,137.09L35.275,137.365L35.364,137.638L35.456,137.911L35.55,138.181L35.646,138.451L35.744,138.718L35.845,138.985L35.948,139.249L36.053,139.513L36.16,139.774L36.269,140.034L36.381,140.292L36.495,140.549L36.611,140.804L36.729,141.057L36.85,141.309L36.974,141.562L37.035,141.683L37.098,141.807L37.161,141.93L37.225,142.053L37.29,142.176L37.355,142.298L37.42,142.42L37.487,142.541L37.553,142.662L37.621,142.782L37.688,142.902L37.757,143.021L37.826,143.14L37.895,143.258L37.965,143.376L38.036,143.494L38.107,143.611L38.179,143.727L38.251,143.843L38.324,143.959L38.398,144.074L38.472,144.189L38.546,144.303L38.621,144.416L38.697,144.53L38.772,144.641L38.845,144.747L38.918,144.851L38.992,144.955L39.067,145.058L39.142,145.161L39.219,145.263L39.296,145.364L39.375,145.465L39.454,145.566L39.534,145.666L39.615,145.766L39.698,145.865L39.781,145.964L39.864,146.062L39.949,146.16L40.035,146.257L40.121,146.354L40.209,146.45L40.297,146.546L40.386,146.642L40.476,146.736L40.567,146.831L40.659,146.925L40.752,147.018L40.846,147.111L40.94,147.204L41.035,147.295L41.131,147.387L41.228,147.478L41.326,147.569L41.425,147.659L41.524,147.748L41.625,147.837L41.639,147.85L41.726,147.926L41.828,148.015L41.93,148.103L42.034,148.19L42.138,148.277L42.243,148.364L42.349,148.45L42.455,148.535L42.563,148.62L42.671,148.705L42.78,148.789L42.89,148.872L43.001,148.956L43.112,149.038L43.224,149.12L43.337,149.202L43.451,149.283L43.565,149.364L43.68,149.444L43.796,149.524L43.913,149.603L44.03,149.682L44.148,149.76L44.267,149.838L44.387,149.915L44.507,149.992L44.628,150.068L44.75,150.144L44.872,150.219L44.995,150.294L45.119,150.368L45.243,150.442L45.368,150.516L45.494,150.588L45.62,150.661L45.748,150.733L45.875,150.804L46.004,150.875L46.133,150.945L46.262,151.015L46.393,151.084L46.523,151.153L46.655,151.221L46.787,151.289L46.92,151.357L47.053,151.423L47.187,151.49L47.321,151.555L47.456,151.621L47.592,151.686L47.726,151.749L48.002,151.877L48.278,152.002L48.557,152.125L48.837,152.246L49.12,152.365L49.404,152.482L49.69,152.597L49.979,152.71L50.269,152.821L50.561,152.929L50.854,153.036L51.149,153.141L51.446,153.244L51.745,153.344L52.045,153.443L52.346,153.54L52.649,153.634L52.953,153.727L53.258,153.818L53.565,153.906L53.873,153.993L54.182,154.077L54.492,154.16L54.803,154.24L54.815,154.243L55.115,154.32L55.428,154.397L55.742,154.473L56.056,154.546L56.372,154.618L56.688,154.688L57.005,154.755L57.322,154.821L57.64,154.885L57.959,154.946L58.278,155.006L58.597,155.064L58.917,155.12L59.237,155.174L59.558,155.226L59.878,155.276L60.199,155.324L60.52,155.37L60.841,155.414L61.162,155.456L61.482,155.497L61.803,155.535L62.124,155.572L62.444,155.607L62.764,155.639L63.084,155.67L63.403,155.699L63.722,155.727L64.04,155.752L64.358,155.775L64.676,155.797L64.992,155.817L65.308,155.835L65.623,155.851L65.938,155.865L66.251,155.878L66.564,155.888L66.876,155.897L67.186,155.904L67.496,155.91L67.804,155.913L68.111,155.915L68.417,155.915L68.722,155.913L69.025,155.91L69.091,155.909L69.327,155.905L69.627,155.9L69.926,155.892L70.224,155.883L70.519,155.872L70.814,155.859L71.106,155.845L71.396,155.829L71.685,155.811L71.972,155.792L72.257,155.771L72.54,155.749L72.82,155.724L73.099,155.699L73.376,155.671L73.65,155.642L73.921,155.612L74.196,155.579L74.469,155.544L74.74,155.508L75.01,155.469L75.279,155.429L75.546,155.386L75.811,155.342L76.075,155.296L76.282,155.258L76.337,155.248L76.598,155.199L76.857,155.149L77.115,155.096L77.371,155.041L77.626,154.985L77.88,154.927L78.132,154.867L78.382,154.806L78.631,154.742L78.879,154.677L79.124,154.611L79.369,154.542L79.612,154.472L79.854,154.4L80.094,154.326L80.332,154.251L80.57,154.174L80.805,154.095L81.04,154.015L81.273,153.933L81.504,153.849L81.734,153.764L81.962,153.677L82.189,153.588L82.415,153.498L82.639,153.406L82.862,153.313L83.084,153.218L83.303,153.121L83.522,153.023L83.647,152.966L83.739,152.924L83.955,152.824L84.17,152.721L84.383,152.618L84.595,152.513L84.805,152.406L85.014,152.298L85.222,152.188L85.428,152.077L85.633,151.964L85.837,151.85L86.039,151.734L86.24,151.617L86.439,151.499L86.637,151.379L86.834,151.257L87.029,151.134L87.223,151.01L87.415,150.884L87.607,150.757L87.797,150.629L87.985,150.499L88.172,150.367L88.358,150.235L88.543,150.1L88.726,149.965L88.907,149.828L89.088,149.69L89.267,149.55L89.445,149.409L89.621,149.267L89.796,149.124L89.97,148.979L90.143,148.833L90.314,148.685L90.484,148.536L90.652,148.386L90.819,148.235L90.985,148.082L91.149,147.928L91.313,147.773L91.474,147.616L91.635,147.459L91.794,147.3L91.952,147.14L92.108,146.978L92.264,146.815L92.418,146.652L92.57,146.486L92.721,146.32L92.871,146.153L93.02,145.984L93.167,145.814L93.313,145.643L93.458,145.471L93.601,145.297L93.743,145.123L93.884,144.947L94.023,144.77L94.161,144.593L94.298,144.413L94.433,144.233L94.567,144.052L94.7,143.87L94.832,143.686L94.962,143.502L95.091,143.316L95.218,143.129L95.344,142.941L95.469,142.752L95.592,142.563L95.715,142.372L95.835,142.18L95.948,141.997L95.955,141.987L96.073,141.793L96.191,141.598L96.307,141.402L96.421,141.206L96.535,141.008L96.647,140.809L96.757,140.609L96.867,140.409L96.975,140.207L97.081,140.004L97.187,139.801L97.291,139.596L97.393,139.391L97.494,139.185L97.594,138.977L97.693,138.769L97.79,138.56L97.886,138.35L97.981,138.139L98.074,137.928L98.166,137.715L98.256,137.502L98.345,137.287L98.433,137.072L98.52,136.856L98.605,136.64L98.689,136.422L98.771,136.204L98.852,135.985L98.932,135.765L99.01,135.544L99.087,135.323L99.162,135.1L99.237,134.878L99.309,134.654L99.381,134.429L99.451,134.204L99.52,133.978L99.587,133.752L99.653,133.525L99.718,133.297L99.781,133.068L99.843,132.839L99.903,132.609L99.962,132.378L100.02,132.147L100.077,131.915L100.131,131.683L100.185,131.45L100.237,131.216L100.288,130.982L100.338,130.747L100.386,130.512L100.432,130.276L100.478,130.039L100.521,129.802L100.564,129.565L100.605,129.326L100.645,129.088L100.683,128.849L100.72,128.609L100.755,128.369L100.79,128.128L100.822,127.887L100.854,127.646L100.884,127.404L100.912,127.161L100.939,126.918L100.965,126.675L100.989,126.432L101.012,126.187L101.034,125.943L101.054,125.698L101.073,125.453L101.09,125.207L101.099,125.075L101.106,124.961L101.121,124.715L101.135,124.468L101.147,124.222L101.157,123.974L101.167,123.727L101.174,123.479L101.181,123.231L101.186,122.982L101.19,122.733L101.192,122.485L101.193,122.235L101.192,121.986L101.19,121.736L101.187,121.486L101.182,121.236L101.176,120.986L101.168,120.735L101.159,120.484L101.148,120.234L101.136,119.982L101.123,119.731L101.108,119.48L101.092,119.228L101.074,118.977L101.055,118.725L101.035,118.473L101.013,118.221L100.99,117.969L100.965,117.717L100.939,117.465L100.911,117.213L100.882,116.96L100.852,116.708L100.82,116.456L100.787,116.203L100.752,115.951L100.716,115.698L100.679,115.446L100.64,115.194L100.599,114.941L100.558,114.689L100.514,114.437L100.47,114.184L100.424,113.932L100.376,113.68L100.327,113.428L100.277,113.176L100.225,112.925L100.172,112.673L100.117,112.421L100.061,112.17L100.004,111.919L99.945,111.668L99.884,111.417L99.823,111.166L99.759,110.915L99.695,110.665L99.629,110.415L99.561,110.165L99.492,109.915L99.422,109.665L99.35,109.416L99.277,109.167L99.202,108.918L99.126,108.669L99.049,108.421L98.969,108.172L98.801,107.652L98.792,107.624L98.701,107.343L98.607,107.058L98.511,106.77L98.412,106.478L98.311,106.185L98.207,105.889L98.101,105.593L97.992,105.295L97.879,104.995L97.823,104.848L97.765,104.7L97.707,104.551L97.648,104.403L97.588,104.255L97.527,104.108L97.466,103.961L97.404,103.814L97.341,103.669L97.278,103.524L97.214,103.38L97.149,103.236L97.083,103.094L97.017,102.952L96.95,102.812L96.883,102.673L96.814,102.535L96.745,102.398L96.675,102.263L96.605,102.129L96.534,101.997L96.462,101.866L96.389,101.737L96.316,101.609L96.242,101.484L96.168,101.36L96.093,101.238L96.018,101.119L95.941,101.001L95.865,100.886L95.788,100.772L95.71,100.661L95.632,100.553L95.554,100.446L95.475,100.343L95.395,100.242L95.316,100.143L95.236,100.047L95.156,99.954L95.075,99.864L94.995,99.776L94.91,99.688L94.696,99.469L94.473,99.246L94.246,99.023L94.015,98.798L93.78,98.573L93.541,98.348L93.298,98.122L93.051,97.896L92.801,97.67L92.547,97.444L92.289,97.219L92.029,96.994L91.765,96.77L91.497,96.546L91.227,96.324L90.954,96.103L90.679,95.883L90.4,95.664L90.119,95.447L89.834,95.23L89.693,95.124L89.55,95.018L89.406,94.912L89.262,94.806L89.117,94.701L88.972,94.596L88.826,94.493L88.68,94.389L88.533,94.287L88.386,94.184L88.238,94.083L88.09,93.982L87.942,93.882L87.793,93.783L87.644,93.684L87.494,93.586L87.344,93.489L87.194,93.393L87.043,93.297L86.892,93.202L86.741,93.108L86.589,93.015L86.438,92.923L86.286,92.831L86.133,92.741L85.981,92.651L85.828,92.563L85.675,92.475L85.522,92.388L85.369,92.302L85.216,92.218L85.062,92.134L84.909,92.051L84.755,91.969L84.601,91.889L84.447,91.809L84.293,91.731L84.139,91.654L83.985,91.578L83.832,91.503L83.678,91.429L83.524,91.356L83.37,91.285L83.216,91.215L83.062,91.146L82.908,91.078L82.755,91.012L82.601,90.946L82.448,90.883L82.295,90.82L82.142,90.759L81.989,90.699L81.837,90.641L81.684,90.584L81.532,90.528L81.38,90.474L81.229,90.421L81.077,90.369L80.926,90.319L80.776,90.271L80.625,90.224L80.475,90.178L80.326,90.134L80.177,90.092L80.028,90.051L79.879,90.011L79.731,89.974L79.584,89.937L79.437,89.903L79.29,89.869L79.144,89.838L78.999,89.808L78.854,89.78L78.709,89.753L78.666,89.746L78.565,89.728L78.422,89.705L78.279,89.683L78.137,89.663L77.996,89.644L77.855,89.628L77.715,89.612L77.575,89.599L77.437,89.587L77.298,89.578L77.161,89.569L77.024,89.563L76.888,89.558L76.743,89.555L76.743,89.555L76.664,89.554Z"/>
    </g>
    <g transform="matrix(0.990943,-0.134283,0.134283,0.990943,-37.4299,-53.7451)">
        <path d="M118.124,81.962L118.361,81.997L118.598,82.032L118.834,82.069L119.07,82.107L119.306,82.147L119.541,82.188L119.775,82.23L120.009,82.274L120.242,82.319L120.474,82.366L120.706,82.414L120.869,82.449L120.937,82.465L121.166,82.518L121.395,82.573L121.623,82.63L121.849,82.688L122.075,82.748L122.3,82.809L122.524,82.872L122.747,82.936L122.969,83.002L123.189,83.07L123.408,83.139L123.627,83.21L123.843,83.283L124.059,83.357L124.19,83.403L124.273,83.434L124.486,83.513L124.696,83.594L124.906,83.677L125.114,83.762L125.321,83.848L125.525,83.937L125.729,84.027L125.931,84.119L126.131,84.213L126.329,84.309L126.525,84.407L126.72,84.507L126.913,84.609L127.104,84.713L127.293,84.819L127.481,84.927L127.532,84.958L127.665,85.038L127.848,85.152L128.028,85.267L128.207,85.385L128.383,85.506L128.556,85.628L128.728,85.753L128.897,85.88L129.063,86.01L129.224,86.14L129.308,86.209L129.389,86.277L129.469,86.345L129.548,86.414L129.626,86.484L129.704,86.554L129.781,86.625L129.857,86.696L129.933,86.768L130.016,86.849L130.1,86.933L130.188,87.026L130.274,87.121L130.361,87.22L130.45,87.325L130.543,87.436L130.583,87.484L130.639,87.553L130.741,87.679L130.952,87.946L131.182,88.24L131.426,88.558L131.685,88.897L131.956,89.254L132.239,89.628L132.827,90.413L133.438,91.23L134.056,92.056L134.366,92.471L134.663,92.871L134.957,93.267L135.243,93.651L135.52,94.02L135.784,94.37L136.034,94.7L136.268,95.005L136.485,95.284L136.584,95.41L136.678,95.529L136.765,95.639L136.847,95.739L136.92,95.829L136.986,95.908L137.042,95.975L137.088,96.027L137.119,96.063L137.154,96.1L137.121,96.07L137.135,96.086L137.097,96.055L137.116,96.071L137.064,96.032L137.081,96.046L137.008,95.996L137.023,96.007L136.914,95.944L136.927,95.951L136.761,95.877L136.481,95.805L137.466,96.436L137.754,97.536L137.751,97.556L137.145,98.547L136.017,98.832L136.007,98.831L135.841,98.806L135.591,98.714L135.435,98.633L135.327,98.565L135.246,98.509L135.181,98.459L135.124,98.413L135.068,98.365L135.059,98.357L134.981,98.288L134.891,98.204L134.801,98.118L134.709,98.026L134.613,97.929L134.513,97.826L134.408,97.717L134.298,97.601L134.183,97.479L134.063,97.349L133.811,97.075L133.54,96.778L133.254,96.46L132.954,96.125L132.642,95.774L132.32,95.411L131.989,95.037L131.658,94.661L131.316,94.269L130.638,93.49L129.97,92.724L129.33,91.991L129.027,91.646L128.736,91.318L128.462,91.01L128.207,90.725L127.972,90.466L127.76,90.237L127.667,90.137L127.615,90.083L127.58,90.045L127.502,89.962L127.432,89.891L127.374,89.833L127.328,89.789L127.298,89.763L127.279,89.747L127.238,89.712L127.186,89.669L127.134,89.627L127.081,89.584L127.028,89.542L126.973,89.499L126.918,89.457L126.863,89.416L126.806,89.374L126.752,89.335L126.632,89.251L126.513,89.17L126.39,89.089L126.265,89.01L126.137,88.932L126.007,88.854L125.873,88.778L125.737,88.702L125.598,88.628L125.497,88.575L125.457,88.554L125.314,88.481L125.168,88.409L125.019,88.337L124.868,88.267L124.714,88.198L124.558,88.13L124.4,88.064L124.239,87.998L124.077,87.934L123.911,87.87L123.744,87.808L123.575,87.747L123.403,87.687L123.229,87.629L123.054,87.572L122.876,87.515L122.806,87.494L122.697,87.46L122.516,87.404L122.334,87.35L122.149,87.297L121.963,87.246L121.775,87.195L121.586,87.146L121.394,87.098L121.202,87.051L121.008,87.006L120.812,86.962L120.615,86.919L120.417,86.877L120.217,86.836L120.016,86.797L119.957,86.785L119.815,86.757L119.612,86.718L119.408,86.679L119.203,86.642L118.997,86.607L118.79,86.572L118.582,86.539L118.374,86.507L118.164,86.476L117.954,86.446L117.742,86.417L117.531,86.39L117.318,86.364L117.183,86.348L117.105,86.337L116.892,86.31L116.678,86.283L116.464,86.258L116.249,86.233L116.034,86.21L115.818,86.188L115.602,86.167L115.386,86.147L115.17,86.129L114.953,86.111L114.737,86.095L114.52,86.079L114.303,86.065L114.23,86.061L114.087,86.05L113.87,86.035L113.654,86.021L113.438,86.008L113.222,85.996L113.006,85.985L112.79,85.975L112.575,85.967L112.36,85.959L112.145,85.952L111.931,85.947L111.718,85.942L111.505,85.939L111.292,85.936L111.081,85.934L110.891,85.934L110.87,85.934L110.659,85.932L110.45,85.932L110.241,85.932L110.033,85.934L109.826,85.936L109.62,85.94L109.415,85.944L109.211,85.95L109.008,85.956L108.807,85.963L108.606,85.971L108.407,85.98L108.209,85.99L108.013,86.001L107.818,86.013L107.624,86.026L107.432,86.039L107.43,86.039L107.241,86.052L107.052,86.066L106.864,86.081L106.678,86.097L106.494,86.114L106.312,86.132L106.131,86.15L105.952,86.169L105.776,86.189L105.601,86.21L105.428,86.231L105.258,86.254L105.089,86.277L104.923,86.3L104.759,86.325L104.597,86.35L104.438,86.376L104.281,86.403L104.15,86.426L104.127,86.43L103.975,86.457L103.826,86.485L103.665,86.516L103.549,86.539L103.42,86.563L103.291,86.583L103.163,86.602L103.034,86.618L102.905,86.632L102.777,86.644L102.647,86.655L102.518,86.665L102.388,86.673L102.258,86.68L102.124,86.686L101.864,86.696L101.6,86.703L101.334,86.708L101.067,86.712L100.534,86.717L100.268,86.719L100.005,86.723L99.745,86.727L99.489,86.733L99.236,86.742L99.115,86.747L98.993,86.752L98.873,86.759L98.756,86.766L98.64,86.774L98.527,86.783L98.416,86.792L98.31,86.803L98.308,86.803L98.203,86.814L98.1,86.825L98.001,86.838L97.905,86.851L97.813,86.865L97.725,86.88L97.64,86.896L97.56,86.912L97.485,86.929L97.414,86.946L97.348,86.964L97.287,86.982L97.226,87.001L97.206,87.007L97.181,87.016L97.158,87.024L97.137,87.032L97.117,87.04L97.098,87.047L97.081,87.054L97.065,87.061L97.051,87.067L97.024,87.082L97.052,87.064L97.027,87.078L97.002,87.093L97.031,87.072L97.008,87.086L96.986,87.101L97.015,87.078L96.994,87.092L96.974,87.106L97.004,87.08L96.985,87.094L96.967,87.108L96.96,87.115L95.834,87.492L94.806,87.069L94.792,87.055L94.391,85.983L94.842,84.901L94.849,84.894L94.893,84.848L94.954,84.79L95.016,84.734L95.078,84.681L95.142,84.629L95.206,84.579L95.27,84.531L95.335,84.484L95.4,84.44L95.466,84.397L95.532,84.355L95.598,84.316L95.665,84.277L95.732,84.24L95.799,84.205L95.866,84.17L95.934,84.137L96.007,84.103L96.137,84.044L96.274,83.988L96.411,83.935L96.549,83.885L96.687,83.839L96.826,83.796L96.965,83.755L97.105,83.717L97.246,83.681L97.387,83.647L97.528,83.615L97.67,83.584L97.812,83.556L97.815,83.555L97.954,83.53L98.097,83.505L98.24,83.481L98.383,83.459L98.526,83.438L98.669,83.418L98.812,83.399L98.958,83.38L99.24,83.347L99.523,83.316L99.803,83.287L100.08,83.26L100.352,83.235L100.879,83.185L101.132,83.16L101.375,83.135L101.608,83.109L101.832,83.081L101.934,83.067L102.036,83.053L102.134,83.038L102.228,83.023L102.317,83.008L102.402,82.992L102.481,82.976L102.555,82.96L102.624,82.944L102.686,82.927L102.741,82.912L102.804,82.893L102.961,82.848L103.135,82.8L103.31,82.753L103.337,82.746L103.488,82.708L103.668,82.663L103.85,82.62L104.034,82.577L104.219,82.535L104.407,82.494L104.597,82.454L104.788,82.414L104.981,82.375L105.176,82.337L105.373,82.3L105.572,82.264L105.772,82.229L105.974,82.194L106.177,82.161L106.383,82.128L106.589,82.096L106.798,82.065L107.005,82.035L107.007,82.034L107.219,82.006L107.432,81.979L107.646,81.953L107.861,81.927L108.078,81.903L108.296,81.879L108.516,81.857L108.736,81.835L108.958,81.814L109.181,81.794L109.405,81.776L109.63,81.758L109.856,81.741L110.083,81.725L110.311,81.71L110.54,81.697L110.77,81.684L110.793,81.683L111.001,81.674L111.233,81.665L111.465,81.657L111.698,81.651L111.932,81.645L112.166,81.64L112.401,81.637L112.637,81.635L112.873,81.633L113.11,81.633L113.347,81.634L113.584,81.637L113.822,81.64L114.06,81.645L114.299,81.65L114.457,81.655L114.538,81.658L114.777,81.669L115.016,81.682L115.255,81.695L115.495,81.71L115.734,81.726L115.973,81.743L116.213,81.762L116.452,81.781L116.692,81.802L116.931,81.825L117.17,81.848L117.409,81.873L117.648,81.9L117.735,81.91L117.886,81.93L118.124,81.962Z"/>
        <path d="M109.183,74.707L109.33,74.855L109.456,75.022L109.558,75.203L109.626,75.345L109.682,75.57L109.703,75.708L109.71,75.833L109.708,75.937L109.701,76.018L109.701,76.028L109.325,76.847L109.423,76.764L109.565,76.516L109.563,76.523L109.615,76.394L109.613,76.403L109.645,76.299L109.641,76.326L109.659,76.254L109.655,76.29L109.664,76.25L109.664,76.277L109.663,76.359L109.662,76.476L109.659,76.621L109.655,76.842L109.651,76.956L109.644,77.132L109.636,77.306L109.626,77.476L109.613,77.635L109.603,77.722L109.59,77.81L109.57,77.914L109.547,78.007L109.514,78.161L109.495,78.28L109.477,78.403L109.46,78.53L109.443,78.661L109.426,78.795L109.409,78.933L109.393,79.073L109.375,79.221L109.355,79.367L109.313,79.668L109.289,79.827L109.264,79.987L109.236,80.15L109.205,80.317L109.171,80.486L109.134,80.659L109.115,80.736L109.092,80.829L109.067,80.922L109.042,81.011L109.016,81.101L108.988,81.192L108.958,81.283L108.927,81.375L108.895,81.468L108.86,81.561L108.824,81.655L108.785,81.749L108.745,81.844L108.702,81.939L108.658,82.035L108.611,82.13L108.561,82.226L108.509,82.323L108.455,82.419L108.397,82.515L108.337,82.611L108.309,82.653L108.274,82.706L108.207,82.8L108.138,82.894L108.066,82.987L107.99,83.079L107.912,83.171L107.835,83.257L107.696,83.411L107.558,83.56L107.417,83.707L107.275,83.852L107.131,83.996L107.085,84.04L106.981,84.134L106.829,84.27L106.675,84.403L106.519,84.535L106.361,84.664L106.201,84.792L106.04,84.918L105.989,84.956L105.874,85.037L105.705,85.153L105.534,85.266L105.362,85.378L105.188,85.487L105.013,85.595L104.849,85.692L104.837,85.699L104.656,85.798L104.475,85.895L104.292,85.989L104.108,86.081L103.923,86.171L103.737,86.259L103.564,86.338L103.549,86.344L103.36,86.425L103.169,86.502L102.977,86.578L102.784,86.651L102.59,86.722L102.396,86.79L102.201,86.857L102.187,86.861L102.004,86.918L101.806,86.977L101.608,87.034L101.409,87.088L101.209,87.14L101.009,87.19L100.808,87.237L100.774,87.245L100.606,87.279L100.404,87.319L100.201,87.356L99.998,87.391L99.794,87.423L99.59,87.453L99.386,87.48L99.182,87.505L98.977,87.527L98.772,87.547L98.567,87.565L98.362,87.579L98.157,87.592L98.073,87.596L97.952,87.6L97.747,87.605L97.541,87.608L97.336,87.608L97.131,87.605L96.926,87.6L96.721,87.592L96.517,87.581L96.313,87.568L96.109,87.552L95.987,87.541L95.915,87.534L95.906,87.533L94.83,87.024L94.373,86.021L94.373,86.001L94.817,85L95.886,84.47L95.896,84.469L95.959,84.461L96.069,84.448L96.232,84.425L96.394,84.4L96.556,84.373L96.717,84.344L96.878,84.313L97.038,84.279L97.198,84.244L97.357,84.207L97.515,84.168L97.608,84.144L97.673,84.128L97.831,84.088L97.987,84.045L98.143,84.001L98.299,83.955L98.453,83.906L98.607,83.857L98.76,83.805L98.912,83.751L99.063,83.696L99.213,83.639L99.362,83.58L99.511,83.52L99.633,83.469L99.658,83.459L99.806,83.398L99.952,83.335L100.097,83.271L100.241,83.205L100.384,83.137L100.526,83.068L100.657,83.003L100.667,82.998L100.808,82.928L100.947,82.857L101.086,82.785L101.223,82.711L101.359,82.635L101.494,82.558L101.627,82.48L101.637,82.474L101.76,82.403L101.893,82.325L102.024,82.246L102.154,82.165L102.282,82.083L102.409,81.999L102.535,81.915L102.543,81.909L102.661,81.833L102.786,81.75L102.91,81.665L103.032,81.58L103.153,81.493L103.273,81.404L103.354,81.343L103.392,81.317L103.513,81.232L103.632,81.147L103.75,81.059L103.866,80.971L103.981,80.881L104.094,80.791L104.171,80.727L104.207,80.7L104.321,80.611L104.434,80.521L104.545,80.429L104.654,80.337L104.758,80.247L104.777,80.233L104.792,80.222L104.808,80.21L104.824,80.197L104.839,80.184L104.856,80.169L104.865,80.16L104.873,80.154L104.89,80.137L104.909,80.119L104.927,80.1L104.946,80.08L104.965,80.057L104.985,80.033L105.005,80.008L105.025,79.981L105.045,79.952L105.065,79.921L105.086,79.889L105.107,79.855L105.128,79.819L105.149,79.782L105.17,79.743L105.191,79.702L105.212,79.659L105.233,79.615L105.253,79.574L105.277,79.519L105.298,79.473L105.342,79.371L105.387,79.264L105.431,79.15L105.476,79.032L105.521,78.908L105.565,78.781L105.658,78.507L105.705,78.366L105.754,78.223L105.806,78.075L105.858,77.923L105.913,77.769L105.97,77.612L106.03,77.452L106.092,77.29L106.158,77.126L106.215,76.998L106.221,76.991L106.201,77.069L106.209,77.054L106.219,77.031L106.213,77.062L106.226,77.024L106.257,76.925L106.293,76.799L106.333,76.651L106.374,76.491L106.403,76.378L106.46,76.162L106.502,76.003L106.541,75.853L106.578,75.717L106.599,75.637L106.623,75.546L106.657,75.432L106.703,75.306L106.795,75.103L106.882,74.98L107.051,74.778L107.252,74.608L107.478,74.474L107.481,74.473L107.731,74.378L107.994,74.327L108.262,74.322L108.527,74.363L108.781,74.45L109.016,74.578L109.018,74.58L109.183,74.707ZM106.627,76.058L106.621,76.027L106.634,76.138L106.631,76.127L106.66,76.268L106.658,76.261L106.76,76.543L107.297,77.163L107.803,77.197L106.637,76.047L106.629,76.008L106.623,75.983L106.627,76.058Z"/>
        <path d="M102.517,84.738L102.673,84.761L102.829,84.784L102.984,84.809L103.139,84.834L103.294,84.86L103.449,84.886L103.603,84.914L103.746,84.941L103.757,84.943L103.91,84.975L104.063,85.008L104.215,85.042L104.368,85.076L104.519,85.112L104.671,85.148L104.822,85.185L104.973,85.223L105.079,85.25L105.123,85.263L105.272,85.306L105.421,85.35L105.569,85.395L105.717,85.441L105.864,85.487L106.011,85.535L106.158,85.583L106.304,85.632L106.308,85.633L106.448,85.687L106.591,85.743L106.734,85.8L106.876,85.858L107.018,85.917L107.159,85.976L107.3,86.036L107.44,86.097L107.556,86.148L107.579,86.159L107.716,86.226L107.853,86.294L107.989,86.362L108.124,86.431L108.259,86.5L108.394,86.571L108.527,86.642L108.66,86.714L108.792,86.787L108.902,86.848L108.924,86.861L109.054,86.938L109.183,87.015L109.311,87.094L109.439,87.173L109.566,87.252L109.692,87.333L109.818,87.414L109.943,87.496L110.067,87.579L110.191,87.662L110.236,87.693L110.313,87.747L110.434,87.833L110.554,87.921L110.673,88.008L110.792,88.097L110.91,88.186L111.027,88.276L111.143,88.367L111.259,88.458L111.373,88.55L111.457,88.618L111.487,88.643L111.599,88.738L111.71,88.834L111.82,88.93L111.93,89.027L112.038,89.125L112.146,89.223L112.252,89.322L112.358,89.421L112.463,89.522L112.567,89.622L112.671,89.724L112.773,89.826L112.874,89.929L112.975,90.032L113.074,90.136L113.173,90.241L113.259,90.335L113.27,90.346L113.366,90.454L113.461,90.561L113.554,90.67L113.647,90.778L113.739,90.888L113.829,90.998L113.921,91.112L114.323,92.246L113.941,93.275L113.927,93.29L112.906,93.674L111.764,93.287L111.756,93.28L111.658,93.205L111.564,93.134L111.469,93.064L111.373,92.995L111.277,92.927L111.18,92.859L111.082,92.792L111.071,92.785L110.985,92.725L110.888,92.658L110.79,92.592L110.691,92.527L110.592,92.462L110.492,92.398L110.391,92.335L110.29,92.273L110.188,92.211L110.086,92.15L109.983,92.089L109.88,92.03L109.776,91.971L109.672,91.913L109.567,91.855L109.461,91.798L109.355,91.742L109.327,91.727L109.249,91.685L109.143,91.629L109.037,91.573L108.93,91.518L108.822,91.464L108.714,91.41L108.605,91.357L108.496,91.305L108.386,91.253L108.276,91.202L108.206,91.171L108.165,91.151L108.055,91.1L107.944,91.05L107.833,91L107.721,90.95L107.608,90.902L107.495,90.854L107.382,90.806L107.268,90.76L107.154,90.714L107.039,90.668L107.019,90.661L106.924,90.622L106.81,90.575L106.695,90.529L106.579,90.484L106.463,90.439L106.346,90.395L106.229,90.352L106.112,90.309L105.994,90.267L105.875,90.226L105.855,90.219L105.758,90.182L105.64,90.137L105.522,90.093L105.403,90.05L105.284,90.008L105.164,89.966L105.044,89.925L104.923,89.884L104.805,89.845L104.802,89.844L104.683,89.799L104.562,89.755L104.442,89.711L104.32,89.668L104.199,89.626L104.077,89.584L103.954,89.543L103.831,89.502L103.794,89.491L103.708,89.46L103.585,89.417L103.461,89.374L103.337,89.333L103.212,89.291L103.087,89.251L102.961,89.211L102.835,89.171L102.708,89.133L102.7,89.13L102.582,89.092L102.455,89.052L102.328,89.012L102.2,88.973L102.071,88.935L101.942,88.897L101.813,88.86L101.683,88.823L101.553,88.787L101.552,88.787L101.422,88.75L101.291,88.713L101.16,88.677L101.028,88.642L100.896,88.607L100.763,88.573L100.63,88.539L100.496,88.506L100.385,88.479L100.362,88.474L100.228,88.44L100.094,88.407L99.959,88.374L99.823,88.342L99.687,88.311L99.551,88.28L99.414,88.25L99.277,88.221L99.139,88.193L99.001,88.165L98.863,88.137L98.724,88.111L98.584,88.085L98.445,88.06L98.305,88.035L98.164,88.011L98.145,88.008L98.024,87.986L97.883,87.962L97.741,87.938L97.6,87.915L97.457,87.893L97.315,87.871L97.172,87.851L97.029,87.83L96.885,87.811L96.741,87.792L96.597,87.774L96.453,87.757L96.37,87.747L96.304,87.74L96.294,87.739L95.223,87.216L94.775,86.213L94.775,86.193L95.228,85.19L96.302,84.676L96.312,84.675L96.381,84.668L96.468,84.659L96.629,84.644L96.789,84.629L96.949,84.616L97.11,84.603L97.27,84.591L97.431,84.58L97.591,84.57L97.752,84.561L97.912,84.552L98.072,84.545L98.233,84.538L98.371,84.533L98.393,84.532L98.553,84.529L98.713,84.526L98.873,84.524L99.033,84.523L99.193,84.523L99.352,84.524L99.512,84.526L99.672,84.528L99.831,84.531L99.99,84.535L100.15,84.54L100.309,84.546L100.468,84.552L100.627,84.56L100.786,84.568L100.944,84.577L100.97,84.579L101.102,84.589L101.26,84.602L101.418,84.616L101.576,84.63L101.733,84.646L101.891,84.662L102.048,84.679L102.205,84.697L102.36,84.716L102.517,84.738Z"/>
    </g>
    <g transform="matrix(1.15414,0,0,1.22876,-36.8879,-92.4882)">
        <path d="M85.868,107.071L85.948,107.075L87.538,107.725L88.22,109.144L88.22,109.152L88.22,109.152L88.22,109.16L87.581,110.556L86.012,111.289L86.003,111.29L85.963,111.295L86.025,111.293L85.983,111.299L86.043,111.296L86.001,111.303L86.059,111.298L86.04,111.302L86.016,111.306L86.071,111.301L86.029,111.31L86.081,111.303L86.063,111.31L86.045,111.317L86.093,111.309L86.072,111.317L86.05,111.326L86.094,111.317L86.07,111.327L86.046,111.337L86.086,111.328L86.059,111.339L86.032,111.352L86.069,111.341L86.04,111.355L86.01,111.369L86.044,111.359L86.012,111.374L85.98,111.39L86.011,111.38L85.977,111.397L85.956,111.41L85.934,111.424L85.911,111.44L85.886,111.456L85.859,111.473L85.837,111.489L85.771,111.532L85.706,111.576L85.637,111.625L85.563,111.678L85.485,111.735L85.404,111.796L85.318,111.861L85.23,111.93L85.138,112.004L85.068,112.06L85.043,112.08L84.945,112.16L84.844,112.243L84.74,112.33L84.634,112.42L84.526,112.514L84.416,112.61L84.303,112.711L84.189,112.814L84.072,112.92L83.954,113.029L83.834,113.142L83.713,113.257L83.59,113.374L83.465,113.495L83.339,113.618L83.211,113.743L83.083,113.871L82.952,114.001L82.821,114.134L82.689,114.268L82.555,114.405L82.421,114.544L82.285,114.685L82.149,114.828L82.011,114.972L81.874,115.117L81.594,115.417L81.312,115.721L81.116,115.934L81.026,116.029L80.736,116.341L80.443,116.657L80.149,116.977L79.854,117.3L79.558,117.627L79.26,117.956L78.963,118.287L78.712,118.567L78.664,118.619L78.363,118.948L77.76,119.61L77.161,120.268L76.568,120.921L76.207,121.317L75.978,121.559L75.393,122.177L75.102,122.481L74.816,122.78L74.533,123.073L74.254,123.362L73.978,123.644L73.706,123.92L73.678,123.948L73.432,124.185L73.163,124.443L72.897,124.694L72.638,124.935L72.506,125.056L72.394,125.158L72.376,125.173L72.247,125.286L72.117,125.398L71.989,125.507L71.861,125.615L71.734,125.72L71.608,125.824L71.481,125.926L71.355,126.027L71.229,126.125L71.103,126.222L70.998,126.301L70.975,126.317L70.845,126.408L70.714,126.498L70.589,126.582L70.453,126.671L70.32,126.756L70.066,126.918L69.806,127.079L69.547,127.238L69.286,127.394L69.026,127.548L68.764,127.699L68.503,127.848L68.242,127.995L68.072,128.089L67.978,128.138L67.713,128.275L67.448,128.41L67.182,128.543L66.917,128.674L66.652,128.803L66.388,128.931L66.123,129.058L65.86,129.183L65.596,129.306L65.333,129.428L65.07,129.549L65.052,129.558L64.805,129.666L64.28,129.893L63.756,130.117L63.236,130.338L62.206,130.775L62.036,130.847L61.696,130.986L61.187,131.196L60.937,131.299L60.686,131.403L60.437,131.508L60.19,131.612L59.944,131.717L59.699,131.822L59.456,131.927L59.215,132.033L59.163,132.056L58.974,132.137L58.733,132.24L58.495,132.344L58.258,132.449L58.023,132.554L57.79,132.66L57.558,132.767L57.328,132.876L57.1,132.985L56.875,133.095L56.651,133.206L56.429,133.318L56.209,133.432L55.988,133.549L55.882,133.605L55.774,133.663L55.667,133.722L55.561,133.781L55.454,133.84L55.349,133.9L55.244,133.96L55.139,134.021L55.035,134.082L54.931,134.143L54.828,134.205L54.702,134.285L54.604,134.351L54.487,134.425L54.376,134.49L54.269,134.549L54.165,134.602L54.064,134.652L53.964,134.699L53.866,134.743L53.797,134.772L53.768,134.785L53.667,134.827L53.479,134.899L53.285,134.971L53.091,135.039L52.896,135.106L52.702,135.171L52.314,135.299L52.124,135.361L51.936,135.423L51.752,135.484L51.575,135.544L51.4,135.605L51.321,135.632L51.241,135.661L51.163,135.689L51.089,135.716L51.017,135.743L50.949,135.769L50.884,135.794L50.823,135.818L50.766,135.84L50.714,135.861L50.666,135.881L50.623,135.898L50.566,135.926L50.605,135.899L50.554,135.925L50.506,135.95L50.551,135.917L50.51,135.939L50.471,135.96L50.524,135.916L50.493,135.933L50.465,135.949L50.51,135.907L50.484,135.928L50.515,135.896L50.49,135.918L50.522,135.884L50.497,135.905L50.531,135.869L50.507,135.891L50.541,135.852L50.518,135.873L50.554,135.832L50.532,135.853L50.568,135.808L50.547,135.83L50.583,135.781L50.564,135.803L50.601,135.751L50.582,135.773L50.619,135.716L50.602,135.738L50.639,135.678L50.623,135.7L50.66,135.635L50.644,135.657L50.681,135.588L50.666,135.61L50.702,135.535L50.689,135.558L50.722,135.478L50.71,135.501L50.742,135.416L50.731,135.439L50.76,135.349L50.758,135.354L50.751,135.372L50.776,135.278L50.768,135.3L50.79,135.201L50.782,135.224L50.799,135.121L50.794,135.144L50.805,135.037L50.801,135.061L50.807,134.951L50.804,134.974L50.803,134.982L50.006,136.444L48.51,137.026L48.492,137.026L46.963,136.368L46.317,134.871L46.317,134.863L46.316,134.785L46.325,134.653L46.34,134.525L46.361,134.4L46.388,134.279L46.413,134.186L46.419,134.163L46.455,134.052L46.495,133.946L46.537,133.844L46.582,133.748L46.629,133.656L46.678,133.568L46.727,133.485L46.778,133.406L46.829,133.33L46.881,133.258L46.933,133.19L46.986,133.124L47.038,133.061L47.09,133L47.143,132.942L47.202,132.879L47.298,132.781L47.402,132.682L47.505,132.588L47.608,132.499L47.711,132.414L47.813,132.333L47.914,132.255L48.016,132.18L48.118,132.106L48.219,132.035L48.321,131.965L48.423,131.897L48.524,131.831L48.626,131.766L48.728,131.701L48.829,131.638L48.931,131.576L49.032,131.515L49.136,131.453L49.334,131.337L49.533,131.222L49.729,131.11L49.921,131.002L50.108,130.897L50.461,130.698L50.624,130.605L50.776,130.517L50.915,130.434L51.039,130.357L51.15,130.286L51.19,130.257L51.201,130.249L51.229,130.23L51.261,130.205L51.287,130.185L51.304,130.168L51.336,130.143L51.288,130.172L51.31,130.152L51.328,130.134L51.265,130.176L51.307,130.142L51.233,130.194L51.254,130.173L51.342,130.092L51.455,129.993L51.568,129.896L51.681,129.799L51.795,129.702L51.909,129.607L52.023,129.512L52.138,129.417L52.254,129.323L52.37,129.23L52.486,129.138L52.605,129.044L52.836,128.863L53.072,128.683L53.308,128.505L53.546,128.33L53.785,128.156L54.025,127.984L54.265,127.814L54.507,127.646L54.749,127.48L54.991,127.315L55.235,127.152L55.478,126.991L55.722,126.831L55.914,126.707L55.967,126.673L56.213,126.519L56.46,126.367L56.706,126.216L56.953,126.066L57.199,125.917L57.445,125.77L57.691,125.623L57.937,125.477L58.425,125.188L58.749,124.998L58.913,124.904L59.883,124.353L60.362,124.08L60.837,123.808L61.307,123.536L61.521,123.411L61.538,123.402L61.771,123.271L62.002,123.14L62.232,123.009L62.46,122.878L62.686,122.746L62.91,122.615L63.132,122.483L63.353,122.351L63.571,122.219L63.787,122.086L64,121.953L64.075,121.906L64.214,121.823L64.427,121.695L64.637,121.566L64.845,121.437L65.051,121.307L65.254,121.176L65.455,121.044L65.653,120.912L65.852,120.777L65.945,120.713L66.034,120.65L66.087,120.612L66.138,120.574L66.196,120.53L66.207,120.522L66.26,120.483L66.331,120.432L66.406,120.377L66.485,120.317L66.569,120.252L66.657,120.184L66.748,120.112L66.844,120.035L66.942,119.955L67.044,119.872L67.148,119.785L67.163,119.773L67.258,119.697L67.368,119.608L67.604,119.414L67.848,119.211L68.101,118.997L68.337,118.796L68.364,118.774L68.639,118.546L68.923,118.31L69.214,118.065L69.511,117.813L69.815,117.554L70.124,117.29L70.762,116.742L71.012,116.525L71.423,116.182L72.105,115.613L72.8,115.033L73.503,114.447L73.859,114.152L73.916,114.105L74.218,113.86L74.58,113.569L74.942,113.279L75.304,112.99L75.667,112.703L76.029,112.418L76.39,112.135L76.751,111.856L76.863,111.769L77.113,111.582L77.474,111.313L77.832,111.05L78.012,110.919L78.19,110.789L78.368,110.661L78.545,110.535L78.721,110.409L78.897,110.285L79.072,110.163L79.246,110.042L79.419,109.923L79.592,109.805L79.764,109.689L79.934,109.575L80.104,109.462L80.274,109.352L80.442,109.243L80.609,109.136L80.776,109.031L80.941,108.928L81.106,108.827L81.27,108.728L81.433,108.631L81.595,108.536L81.756,108.443L81.917,108.353L82.077,108.265L82.236,108.179L82.278,108.157L82.395,108.096L82.554,108.016L82.712,107.938L82.871,107.863L83.029,107.79L83.187,107.72L83.345,107.652L83.503,107.587L83.662,107.525L83.817,107.468L83.903,107.437L83.984,107.409L84.065,107.382L84.146,107.356L84.229,107.33L84.311,107.305L84.395,107.282L84.479,107.259L84.564,107.237L84.649,107.216L84.736,107.196L84.823,107.178L84.911,107.16L85.001,107.144L85.092,107.129L85.184,107.115L85.277,107.103L85.372,107.093L85.372,107.097L85.468,107.084L85.565,107.078L85.62,107.075L85.665,107.073L85.765,107.071L85.868,107.071Z" style="fill:rgb(255,0,82);"/>
    </g>
    <g transform="matrix(1.15414,0,0,1.22876,-36.8879,-92.4882)">
        <path d="M54.471,111.891L54.448,111.868L54.483,111.89L54.464,111.87L54.445,111.852L54.487,111.876L54.473,111.861L54.46,111.847L54.511,111.873L54.475,111.849L54.531,111.876L54.496,111.853L54.559,111.881L54.524,111.861L54.594,111.889L54.56,111.87L54.638,111.899L54.605,111.882L54.692,111.911L54.659,111.896L54.757,111.924L54.725,111.911L54.835,111.936L54.82,111.931L54.804,111.926L54.926,111.948L54.896,111.939L55.032,111.956L55.003,111.949L55.154,111.959L55.125,111.954L55.116,111.953L53.569,111.158L52.963,109.78L52.963,109.763L53.678,108.34L55.278,107.741L55.287,107.741L55.392,107.741L55.566,107.754L55.727,107.774L55.805,107.788L55.875,107.801L56.013,107.832L56.141,107.866L56.26,107.903L56.372,107.941L56.477,107.98L56.577,108.02L56.672,108.06L56.763,108.101L56.851,108.142L56.936,108.184L57.019,108.226L57.099,108.269L57.178,108.312L57.255,108.355L57.331,108.399L57.407,108.443L57.481,108.487L57.559,108.536L57.7,108.624L57.845,108.718L57.989,108.814L58.133,108.912L58.277,109.013L58.422,109.116L58.567,109.221L58.713,109.329L58.86,109.439L59.007,109.55L59.155,109.664L59.304,109.78L59.453,109.897L59.603,110.015L59.754,110.135L59.906,110.258L60.053,110.381L60.202,110.506L60.352,110.633L60.648,110.884L60.943,111.137L61.235,111.389L61.523,111.638L61.805,111.883L62.348,112.351L62.604,112.57L62.848,112.777L63.079,112.97L63.233,113.096L63.294,113.148L63.39,113.228L63.482,113.304L63.569,113.374L63.649,113.437L63.723,113.493L63.789,113.541L63.846,113.58L63.892,113.609L63.926,113.627L63.945,113.631L63.982,113.652L63.905,113.59L63.95,113.616L64.113,113.714L64.303,113.835L64.492,113.957L64.68,114.081L64.805,114.165L64.865,114.207L65.048,114.336L65.229,114.466L65.409,114.597L65.587,114.729L65.764,114.862L65.94,114.996L66.115,115.132L66.288,115.268L66.46,115.404L66.631,115.542L66.801,115.681L66.921,115.781L66.968,115.821L67.132,115.965L67.294,116.109L67.455,116.255L67.615,116.4L67.774,116.547L67.931,116.694L68.087,116.842L68.243,116.99L68.397,117.139L68.55,117.288L68.702,117.438L68.78,117.516L68.85,117.59L68.995,117.745L69.138,117.9L69.281,118.056L69.422,118.212L69.562,118.369L69.702,118.525L69.84,118.682L69.977,118.84L70.114,118.997L70.249,119.155L70.345,119.267L70.382,119.314L70.51,119.477L70.636,119.639L70.762,119.802L70.887,119.965L71.011,120.127L71.061,120.194L71.133,120.294L71.367,120.623L71.599,120.955L71.786,121.224L71.827,121.287L72.045,121.623L72.259,121.959L72.472,122.294L72.681,122.629L72.889,122.962L73.094,123.295L73.217,123.495L73.294,123.628L73.488,123.964L73.868,124.628L74.244,125.287L74.573,125.865L74.614,125.939L74.972,126.59L75.149,126.911L75.326,127.23L75.503,127.547L75.679,127.861L75.834,128.135L75.855,128.173L76.027,128.485L76.199,128.794L76.371,129.1L76.544,129.403L76.719,129.705L76.804,129.852L76.892,130.001L76.979,130.148L77.067,130.294L77.155,130.44L77.243,130.584L77.332,130.728L77.42,130.871L77.51,131.013L77.599,131.155L77.689,131.295L77.779,131.434L77.87,131.573L77.94,131.679L77.96,131.711L78.05,131.849L78.14,131.986L78.23,132.122L78.321,132.257L78.413,132.391L78.505,132.524L78.597,132.657L78.691,132.788L78.784,132.918L78.825,132.974L78.888,133.06L79.386,134.663L78.79,136.038L78.777,136.049L77.267,136.519L75.608,135.934L75.601,135.929L75.515,135.864L75.454,135.817L75.303,135.698L75.153,135.577L75.003,135.456L74.854,135.333L74.706,135.21L74.558,135.086L74.411,134.961L74.265,134.835L74.119,134.708L74.085,134.679L73.975,134.58L73.832,134.45L73.69,134.319L73.548,134.188L73.407,134.056L73.266,133.923L73.126,133.79L72.986,133.656L72.847,133.522L72.708,133.386L72.57,133.251L72.432,133.114L72.295,132.978L72.157,132.839L71.885,132.565L71.614,132.287L71.345,132.008L71.077,131.727L70.81,131.446L70.778,131.412L70.549,131.16L70.289,130.874L70.031,130.587L69.773,130.299L69.516,130.01L69.006,129.436L68.948,129.371L68.506,128.855L68.009,128.276L67.513,127.699L67.266,127.414L67.168,127.301L67.023,127.126L66.783,126.838L66.543,126.552L66.303,126.267L66.062,125.984L65.821,125.704L65.579,125.426L65.534,125.375L65.344,125.145L65.111,124.866L64.874,124.588L64.805,124.507L64.76,124.452L64.646,124.312L64.532,124.173L64.418,124.036L64.303,123.898L64.189,123.762L64.155,123.723L64.078,123.623L63.969,123.484L63.859,123.345L63.749,123.207L63.639,123.07L63.528,122.934L63.417,122.799L63.305,122.664L63.193,122.53L63.081,122.397L62.968,122.265L62.914,122.202L62.858,122.132L62.749,121.997L62.64,121.863L62.531,121.73L62.421,121.598L62.31,121.467L62.199,121.336L62.088,121.207L61.975,121.078L61.863,120.95L61.749,120.824L61.635,120.698L61.603,120.662L61.523,120.57L61.411,120.443L61.299,120.316L61.186,120.191L61.072,120.066L60.957,119.942L60.842,119.819L60.726,119.697L60.609,119.576L60.491,119.456L60.372,119.337L60.253,119.218L60.214,119.18L60.134,119.099L60.016,118.98L59.896,118.862L59.775,118.745L59.624,118.606L59.513,118.511L59.387,118.396L59.271,118.284L59.163,118.174L59.06,118.064L58.96,117.954L58.862,117.842L58.765,117.728L58.669,117.612L58.572,117.494L58.475,117.373L58.376,117.247L58.319,117.174L58.185,116.993L57.99,116.725L57.791,116.449L57.589,116.165L57.179,115.582L56.97,115.285L56.761,114.988L56.552,114.691L56.344,114.397L56.136,114.107L56.035,113.966L55.933,113.826L55.834,113.69L55.833,113.688L55.736,113.551L55.64,113.417L55.546,113.286L55.453,113.158L55.362,113.034L55.273,112.914L55.187,112.798L55.103,112.687L55.021,112.581L54.943,112.48L54.868,112.386L54.798,112.297L54.731,112.215L54.67,112.14L54.614,112.073L54.56,112.01L54.544,111.987L54.524,111.963L54.507,111.941L54.492,111.922L54.466,111.895L54.495,111.915L54.471,111.891Z" style="fill:rgb(255,0,82);"/>
    </g>
</svg>
